<svg width="28" height="29" viewBox="0 0 28 29" fill="none" xmlns="http://www.w3.org/2000/svg">
<path d="M27.7141 14.7122L23.7135 18.7128L22.2933 17.2926L24.5936 15.0022H19.0028C18.207 15.0022 17.4439 14.6861 16.8812 14.1234C16.3185 13.5607 16.0024 12.7975 16.0024 12.0018V3.00044C16.0024 2.73519 15.897 2.4808 15.7094 2.29323C15.5219 2.10567 15.2675 2.0003 15.0022 2.0003H3.00044C2.73519 2.0003 2.4808 2.10567 2.29323 2.29323C2.10567 2.4808 2.0003 2.73519 2.0003 3.00044V25.0037C2.0003 25.269 2.10567 25.5233 2.29323 25.7109C2.4808 25.8985 2.73519 26.0038 3.00044 26.0038H15.0022C15.2675 26.0038 15.5219 25.8985 15.7094 25.7109C15.897 25.5233 16.0024 25.269 16.0024 25.0037V18.0027H18.0027V25.0037C18.0027 25.7995 17.6865 26.5626 17.1239 27.1253C16.5612 27.688 15.798 28.0041 15.0022 28.0041H3.00044C2.20468 28.0041 1.4415 27.688 0.87881 27.1253C0.316117 26.5626 0 25.7995 0 25.0037V3.00044C0 2.20468 0.316117 1.4415 0.87881 0.87881C1.4415 0.316117 2.20468 0 3.00044 0H15.0022C15.798 0 16.5612 0.316117 17.1239 0.87881C17.6865 1.4415 18.0027 2.20468 18.0027 3.00044V12.0018C18.0027 12.267 18.108 12.5214 18.2956 12.709C18.4832 12.8966 18.7376 13.0019 19.0028 13.0019H24.6036L22.3433 10.7216L23.7635 9.31138L27.7141 13.312C27.8974 13.4989 28 13.7503 28 14.0121C28 14.2739 27.8974 14.5252 27.7141 14.7122Z" fill="#737B7E"/>
</svg>
