<svg width="13" height="13" viewBox="0 0 13 13" fill="none" xmlns="http://www.w3.org/2000/svg">
<path d="M6.25487 0.493164C6.45221 0.493164 6.64146 0.571555 6.78099 0.711091C6.92053 0.850627 6.99892 1.03988 6.99892 1.23721V5.7015H11.4632C11.6605 5.7015 11.8498 5.77989 11.9893 5.91942C12.1289 6.05896 12.2073 6.24821 12.2073 6.44555C12.2073 6.64288 12.1289 6.83213 11.9893 6.97167C11.8498 7.1112 11.6605 7.18959 11.4632 7.18959H6.99892V11.6539C6.99892 11.8512 6.92053 12.0405 6.78099 12.18C6.64146 12.3195 6.45221 12.3979 6.25487 12.3979C6.05754 12.3979 5.86829 12.3195 5.72875 12.18C5.58921 12.0405 5.51082 11.8512 5.51082 11.6539V7.18959H1.04654C0.849204 7.18959 0.659953 7.1112 0.520417 6.97167C0.380881 6.83213 0.30249 6.64288 0.30249 6.44555C0.30249 6.24821 0.380881 6.05896 0.520417 5.91942C0.659953 5.77989 0.849204 5.7015 1.04654 5.7015H5.51082V1.23721C5.51082 1.03988 5.58921 0.850627 5.72875 0.711091C5.86829 0.571555 6.05754 0.493164 6.25487 0.493164Z" fill="white"/>
</svg>
