<svg width="43" height="43" viewBox="0 0 43 43" fill="none" xmlns="http://www.w3.org/2000/svg">
<path d="M21.5 43C17.2477 43 13.0909 41.739 9.55525 39.3766C6.01959 37.0141 3.26388 33.6563 1.6366 29.7277C0.00931553 25.7991 -0.416456 21.4762 0.413126 17.3056C1.24271 13.135 3.29038 9.30404 6.29721 6.29721C9.30404 3.29038 13.135 1.24271 17.3056 0.413126C21.4762 -0.416456 25.7991 0.00931553 29.7277 1.6366C33.6563 3.26388 37.0141 6.01959 39.3766 9.55525C41.739 13.0909 43 17.2477 43 21.5C42.9919 27.1997 40.7242 32.6636 36.6939 36.6939C32.6636 40.7242 27.1997 42.9919 21.5 43ZM21.5 2.28805C17.7002 2.28805 13.9858 3.41482 10.8264 5.52585C7.66703 7.63689 5.20458 10.6374 3.75048 14.1479C2.29637 17.6584 1.91591 21.5213 2.65721 25.2481C3.3985 28.9748 5.22827 32.3981 7.9151 35.0849C10.6019 37.7717 14.0252 39.6015 17.7519 40.3428C21.4787 41.0841 25.3416 40.7036 28.8521 39.2495C32.3626 37.7954 35.3631 35.333 37.4742 32.1736C39.5852 29.0142 40.712 25.2998 40.712 21.5C40.7059 16.4065 38.6798 11.5234 35.0782 7.92179C31.4766 4.32016 26.5935 2.29411 21.5 2.28805Z" fill="#E9CD8B"/>
<path d="M21.5001 38.424C18.1529 38.424 14.8808 37.4314 12.0977 35.5718C9.31454 33.7122 7.14537 31.069 5.86443 27.9766C4.5835 24.8841 4.24836 21.4813 4.90137 18.1984C5.55438 14.9155 7.16623 11.8999 9.53308 9.53308C11.8999 7.16623 14.9155 5.55438 18.1984 4.90137C21.4813 4.24836 24.8841 4.5835 27.9766 5.86443C31.069 7.14537 33.7122 9.31454 35.5718 12.0977C37.4314 14.8808 38.424 18.1529 38.424 21.5001C38.4179 25.9867 36.6329 30.2879 33.4604 33.4604C30.2879 36.6329 25.9867 38.4179 21.5001 38.424ZM21.5001 6.86422C18.6054 6.86422 15.7757 7.7226 13.3688 9.33081C10.962 10.939 9.08607 13.2248 7.97831 15.8992C6.87056 18.5735 6.58072 21.5163 7.14545 24.3554C7.71018 27.1945 9.10411 29.8023 11.151 31.8492C13.1978 33.8961 15.8057 35.29 18.6448 35.8547C21.4838 36.4194 24.4266 36.1296 27.101 35.0219C29.7753 33.9141 32.0611 32.0382 33.6694 29.6313C35.2776 27.2245 36.1359 24.3948 36.1359 21.5001C36.1319 17.6197 34.5886 13.8993 31.8447 11.1554C29.1009 8.41155 25.3805 6.86826 21.5001 6.86422Z" fill="#E9CD8B"/>
<path d="M21.4999 6.86413C21.1965 6.86413 20.9055 6.7436 20.691 6.52906C20.4764 6.31451 20.3559 6.02353 20.3559 5.72011V1.14402C20.3559 0.840609 20.4764 0.549622 20.691 0.335077C20.9055 0.120531 21.1965 0 21.4999 0C21.8033 0 22.0943 0.120531 22.3089 0.335077C22.5234 0.549622 22.6439 0.840609 22.6439 1.14402V5.72011C22.6439 6.02353 22.5234 6.31451 22.3089 6.52906C22.0943 6.7436 21.8033 6.86413 21.4999 6.86413ZM36.1129 16.6798C35.8471 16.6809 35.5892 16.5895 35.3835 16.4211C35.1778 16.2527 35.0372 16.018 34.9858 15.7572C34.9343 15.4964 34.9753 15.2259 35.1017 14.992C35.228 14.7582 35.4318 14.5756 35.6782 14.4757L39.911 12.752C40.0503 12.6949 40.1994 12.6658 40.3498 12.6664C40.5003 12.6669 40.6492 12.6971 40.788 12.7551C40.9268 12.8132 41.0528 12.8981 41.1588 13.0048C41.2649 13.1116 41.3488 13.2382 41.4059 13.3774C41.463 13.5167 41.4921 13.6658 41.4916 13.8162C41.491 13.9667 41.4609 14.1156 41.4028 14.2544C41.3447 14.3932 41.2599 14.5192 41.1531 14.6252C41.0463 14.7313 40.9197 14.8152 40.7805 14.8723L36.5476 16.596C36.4099 16.6531 36.262 16.6817 36.1129 16.6798ZM39.8043 31.5903C39.6291 31.5906 39.4565 31.5488 39.3009 31.4682L35.19 29.4624C34.917 29.3289 34.7081 29.0924 34.6094 28.8049C34.5107 28.5174 34.5303 28.2025 34.6638 27.9294C34.7973 27.6563 35.0338 27.4475 35.3213 27.3488C35.6088 27.2501 35.9237 27.2697 36.1968 27.4032L40.3076 29.4166C40.5411 29.5297 40.7291 29.7187 40.8411 29.9527C40.953 30.1866 40.982 30.4517 40.9235 30.7044C40.865 30.957 40.7224 31.1823 40.519 31.3433C40.3156 31.5043 40.0636 31.5913 39.8043 31.5903ZM8.92329 38.6298C8.66654 38.6282 8.4174 38.5425 8.214 38.3858C8.09316 38.292 7.99222 38.175 7.91707 38.0418C7.84193 37.9085 7.79408 37.7616 7.77633 37.6097C7.75858 37.4577 7.77128 37.3038 7.81369 37.1568C7.8561 37.0098 7.92736 36.8728 8.02333 36.7536L10.8452 33.169C11.0334 32.9303 11.3086 32.7762 11.6104 32.7404C11.9122 32.7046 12.2158 32.7902 12.4545 32.9784C12.6932 33.1665 12.8474 33.4417 12.8831 33.7435C12.9189 34.0453 12.8333 34.3489 12.6452 34.5876L9.82326 38.1722C9.71708 38.311 9.58109 38.4242 9.42533 38.5034C9.26956 38.5826 9.09799 38.6258 8.92329 38.6298ZM14.857 25.7939C14.5535 25.7939 14.2626 25.6734 14.048 25.4588C13.8335 25.2443 13.7129 24.9533 13.7129 24.6499V20.6382C13.7129 20.4879 13.7425 20.3392 13.8 20.2004C13.8575 20.0616 13.9418 19.9355 14.048 19.8292C14.1542 19.723 14.2804 19.6387 14.4192 19.5812C14.558 19.5237 14.7067 19.4941 14.857 19.4941C15.0072 19.4941 15.156 19.5237 15.2948 19.5812C15.4336 19.6387 15.5597 19.723 15.6659 19.8292C15.7721 19.9355 15.8564 20.0616 15.9139 20.2004C15.9714 20.3392 16.001 20.4879 16.001 20.6382V24.6499C16.001 24.9533 15.8804 25.2443 15.6659 25.4588C15.4514 25.6734 15.1604 25.7939 14.857 25.7939ZM19.2881 25.7939C18.9847 25.7939 18.6937 25.6734 18.4792 25.4588C18.2646 25.2443 18.1441 24.9533 18.1441 24.6499V16.8248C18.1441 16.5213 18.2646 16.2304 18.4792 16.0158C18.6937 15.8013 18.9847 15.6807 19.2881 15.6807C19.5915 15.6807 19.8825 15.8013 20.0971 16.0158C20.3116 16.2304 20.4322 16.5213 20.4322 16.8248V24.6499C20.4322 24.9533 20.3116 25.2443 20.0971 25.4588C19.8825 25.6734 19.5915 25.7939 19.2881 25.7939ZM23.7117 25.7939C23.4083 25.7939 23.1173 25.6734 22.9027 25.4588C22.6882 25.2443 22.5677 24.9533 22.5677 24.6499V18.3501C22.5677 18.0467 22.6882 17.7557 22.9027 17.5412C23.1173 17.3266 23.4083 17.2061 23.7117 17.2061C24.0151 17.2061 24.3061 17.3266 24.5206 17.5412C24.7352 17.7557 24.8557 18.0467 24.8557 18.3501V24.6499C24.8557 24.9533 24.7352 25.2443 24.5206 25.4588C24.3061 25.6734 24.0151 25.7939 23.7117 25.7939ZM28.1429 25.7939C27.8395 25.7939 27.5485 25.6734 27.3339 25.4588C27.1194 25.2443 26.9988 24.9533 26.9988 24.6499V20.6382C26.9988 20.3348 27.1194 20.0438 27.3339 19.8292C27.5485 19.6147 27.8395 19.4941 28.1429 19.4941C28.4463 19.4941 28.7373 19.6147 28.9518 19.8292C29.1664 20.0438 29.2869 20.3348 29.2869 20.6382V24.6499C29.2869 24.9533 29.1664 25.2443 28.9518 25.4588C28.7373 25.6734 28.4463 25.7939 28.1429 25.7939Z" fill="#004761"/>
</svg>
