<svg width="50" height="50" viewBox="0 0 50 50" fill="none" xmlns="http://www.w3.org/2000/svg">
<path d="M42.5 20C41.837 20 41.2011 20.2634 40.7322 20.7322C40.2634 21.2011 40 21.837 40 22.5V30.95L36.3 27.25C34.9936 25.9539 33.2278 25.2266 31.3875 25.2266C29.5472 25.2266 27.7814 25.9539 26.475 27.25L24.725 29.025L18.525 22.8C17.2186 21.5039 15.4528 20.7766 13.6125 20.7766C11.7722 20.7766 10.0064 21.5039 8.7 22.8L5 26.525V12.5C5 11.837 5.26339 11.2011 5.73223 10.7322C6.20107 10.2634 6.83696 10 7.5 10H27.5C28.163 10 28.7989 9.73661 29.2678 9.26777C29.7366 8.79893 30 8.16304 30 7.5C30 6.83696 29.7366 6.20107 29.2678 5.73223C28.7989 5.26339 28.163 5 27.5 5H7.5C5.51088 5 3.60322 5.79018 2.1967 7.1967C0.790177 8.60322 0 10.5109 0 12.5V43.05C0.00658764 44.8912 0.740933 46.6552 2.04289 47.9571C3.34484 49.2591 5.10877 49.9934 6.95 50H38.05C38.7275 49.9946 39.4008 49.8936 40.05 49.7C41.4936 49.2951 42.7645 48.4277 43.6677 47.231C44.5709 46.0343 45.0565 44.5743 45.05 43.075V22.5C45.0501 22.1674 44.9838 21.8382 44.855 21.5316C44.7263 21.225 44.5376 20.9471 44.3002 20.7143C44.0627 20.4815 43.7812 20.2984 43.4721 20.1758C43.163 20.0531 42.8325 19.9933 42.5 20ZM7.5 45C6.83696 45 6.20107 44.7366 5.73223 44.2678C5.26339 43.7989 5 43.163 5 42.5V33.575L12.225 26.35C12.5904 25.9867 13.0847 25.7827 13.6 25.7827C14.1153 25.7827 14.6096 25.9867 14.975 26.35L33.65 45H7.5ZM40 42.5C39.9839 42.9841 39.8276 43.4531 39.55 43.85L28.25 32.5L30.025 30.75C30.2042 30.5671 30.4182 30.4217 30.6543 30.3225C30.8904 30.2233 31.1439 30.1722 31.4 30.1722C31.6561 30.1722 31.9096 30.2233 32.1457 30.3225C32.3818 30.4217 32.5958 30.5671 32.775 30.75L40 38.025V42.5ZM47.5 5H45V2.5C45 1.83696 44.7366 1.20107 44.2678 0.732233C43.7989 0.263392 43.163 0 42.5 0C41.837 0 41.2011 0.263392 40.7322 0.732233C40.2634 1.20107 40 1.83696 40 2.5V5H37.5C36.837 5 36.2011 5.26339 35.7322 5.73223C35.2634 6.20107 35 6.83696 35 7.5C35 8.16304 35.2634 8.79893 35.7322 9.26777C36.2011 9.73661 36.837 10 37.5 10H40V12.5C40 13.163 40.2634 13.7989 40.7322 14.2678C41.2011 14.7366 41.837 15 42.5 15C43.163 15 43.7989 14.7366 44.2678 14.2678C44.7366 13.7989 45 13.163 45 12.5V10H47.5C48.163 10 48.7989 9.73661 49.2678 9.26777C49.7366 8.79893 50 8.16304 50 7.5C50 6.83696 49.7366 6.20107 49.2678 5.73223C48.7989 5.26339 48.163 5 47.5 5Z" fill="#C1C1C1"/>
</svg>
