<svg width="11" height="11" viewBox="0 0 11 11" fill="none" xmlns="http://www.w3.org/2000/svg">
<path d="M9.92222 7.50125L8.36686 7.32367C7.99333 7.28081 7.62593 7.4094 7.36262 7.67271L6.23591 8.79943C4.50298 7.91765 3.08234 6.50312 2.20056 4.76406L3.3334 3.63122C3.59671 3.36791 3.7253 3.0005 3.68243 2.62697L3.50485 1.08385C3.43137 0.465384 2.91088 0 2.28629 0H1.22694C0.534989 0 -0.0406146 0.575606 0.00224943 1.26756C0.326792 6.497 4.5091 10.6732 9.73239 10.9978C10.4243 11.0406 10.9999 10.465 10.9999 9.77306V8.7137C11.0061 8.09523 10.5407 7.57473 9.92222 7.50125Z" fill="#2F3437"/>
</svg>
