<svg width="16" height="16" viewBox="0 0 16 16" fill="none" xmlns="http://www.w3.org/2000/svg">
<path d="M2.65923 1.61962C2.36588 1.32719 1.891 1.32793 1.59857 1.62129C1.30614 1.91464 1.30689 2.38951 1.60024 2.68195L7.11073 8.17513L1.61765 13.6855C1.32521 13.9789 1.32596 14.4537 1.61931 14.7462C1.91267 15.0386 2.38754 15.0379 2.67997 14.7445L8.17305 9.23413L13.6852 14.729C13.9786 15.0214 14.4535 15.0207 14.7459 14.7273C15.0383 14.434 15.0376 13.9591 14.7442 13.6667L9.23204 8.1718L14.7252 2.66131C15.0177 2.36796 15.0169 1.89308 14.7236 1.60065C14.4302 1.30822 13.9553 1.30896 13.6629 1.60232L8.16972 7.11281L2.65923 1.61962Z" fill="#25B39E" stroke="#E97370" stroke-width="1.5" stroke-linecap="round" stroke-linejoin="round"/>
</svg>
