<svg width="40" height="36" viewBox="0 0 40 36" fill="none" xmlns="http://www.w3.org/2000/svg">
<path d="M40 31.0031V6.20062C40 3.75757 38.2738 1.7716 36.1538 1.7716H17.1385L16.9 0.671439C16.8585 0.479722 16.7625 0.309497 16.6273 0.187834C16.4921 0.0661707 16.3254 5.45858e-05 16.1538 0H3.84615C2.82647 0.00140653 1.84889 0.468485 1.12786 1.29878C0.406832 2.12908 0.00122143 3.2548 0 4.42901V31.0031C0 33.4461 1.72615 35.4321 3.84615 35.4321H36.1538C38.2738 35.4321 40 33.4461 40 31.0031ZM36.1538 3.54321C37.4262 3.54321 38.4615 4.7355 38.4615 6.20062V7.08642H18.2938L17.5246 3.54321H36.1538ZM16.7077 7.08642H14.4477L13.2938 1.7716H15.5538L16.7077 7.08642ZM1.53846 31.0031V4.42901C1.53846 2.96389 2.57385 1.7716 3.84615 1.7716H11.7077L13.1 8.18659C13.1415 8.3783 13.2375 8.54853 13.3727 8.67019C13.5079 8.79185 13.6746 8.85797 13.8462 8.85802H38.4615V31.0031C38.4615 32.4682 37.4262 33.6605 36.1538 33.6605H3.84615C2.57385 33.6605 1.53846 32.4682 1.53846 31.0031Z" fill="#E9CD8B"/>
<path d="M29 14.0787V13.5808C28.9998 13.4268 28.9385 13.2792 28.8296 13.1703C28.7207 13.0614 28.573 13.0002 28.4189 13H12.5811C12.427 13.0002 12.2793 13.0614 12.1704 13.1703C12.0615 13.2792 12.0002 13.4268 12 13.5808V14.0787C12.0002 14.224 12.0548 14.364 12.1532 14.4711C12.2515 14.5782 12.3864 14.6445 12.5312 14.6572V17.4832C12.3864 17.4958 12.2515 17.5621 12.1532 17.6691C12.0549 17.7761 12.0002 17.9161 12 18.0614V18.5592C12.0002 18.7046 12.0548 18.8446 12.1532 18.9517C12.2515 19.0587 12.3864 19.1251 12.5312 19.1377V21.9638C12.3864 21.9764 12.2515 22.0427 12.1532 22.1497C12.0549 22.2567 12.0002 22.3967 12 22.542V23.0398C12.0002 23.1852 12.0548 23.3252 12.1532 23.4323C12.2515 23.5393 12.3864 23.6057 12.5312 23.6183V29.5022H12.249C12.183 29.5022 12.1196 29.5284 12.0729 29.5751C12.0262 29.6217 12 29.6851 12 29.7511C12 29.8171 12.0262 29.8804 12.0729 29.9271C12.1196 29.9738 12.183 30 12.249 30H28.751C28.817 30 28.8804 29.9738 28.9271 29.9271C28.9738 29.8804 29 29.8171 29 29.7511C29 29.6851 28.9738 29.6217 28.9271 29.5751C28.8804 29.5284 28.817 29.5022 28.751 29.5022H28.4688V23.6183C28.6136 23.6057 28.7485 23.5393 28.8468 23.4323C28.9452 23.3252 28.9998 23.1852 29 23.0398V22.542C28.9998 22.3967 28.9451 22.2567 28.8468 22.1497C28.7485 22.0427 28.6136 21.9764 28.4688 21.9638V19.1377C28.6136 19.1251 28.7485 19.0587 28.8468 18.9517C28.9452 18.8446 28.9998 18.7046 29 18.5592V18.0614C28.9998 17.9161 28.9451 17.7761 28.8468 17.6691C28.7485 17.5621 28.6136 17.4958 28.4688 17.4832V14.6572C28.6136 14.6445 28.7485 14.5782 28.8468 14.4711C28.9452 14.364 28.9998 14.224 29 14.0787ZM20.251 29.5022H17.8604V26.1115H20.251V29.5022ZM23.1396 29.5022H20.749V26.1115H23.1396V29.5022ZM23.6211 25.6137H17.3789C17.3745 25.6136 17.3704 25.6118 17.3673 25.6087C17.3642 25.6056 17.3624 25.6015 17.3623 25.5971V25.1324C17.3623 25.128 17.3641 25.1238 17.3672 25.1207C17.3703 25.1176 17.3745 25.1158 17.3789 25.1158H23.6211C23.6255 25.1158 23.6297 25.1176 23.6328 25.1207C23.6359 25.1238 23.6377 25.128 23.6377 25.1324V25.5971C23.6376 25.6015 23.6358 25.6056 23.6327 25.6087C23.6296 25.6118 23.6255 25.6136 23.6211 25.6137ZM27.9707 29.5022H23.638V26.1105C23.7714 26.1061 23.8979 26.0501 23.9908 25.9544C24.0837 25.8586 24.1358 25.7305 24.1361 25.5971V25.1324C24.1359 24.996 24.0816 24.8653 23.9851 24.7689C23.8887 24.6724 23.7579 24.6182 23.6214 24.618H17.3789C17.2425 24.6182 17.1117 24.6724 17.0152 24.7689C16.9187 24.8653 16.8644 24.996 16.8643 25.1324V25.5971C16.8645 25.7305 16.9166 25.8586 17.0095 25.9544C17.1024 26.0501 17.2289 26.1061 17.3623 26.1105V29.5022H13.0293V23.6206H27.9707V29.5022ZM28.502 22.542V23.0398C28.502 23.0618 28.4932 23.0829 28.4776 23.0985C28.4621 23.1141 28.441 23.1228 28.4189 23.1228H12.5811C12.559 23.1228 12.5379 23.1141 12.5224 23.0985C12.5068 23.0829 12.498 23.0618 12.498 23.0398V22.542C12.498 22.52 12.5068 22.4989 12.5224 22.4833C12.5379 22.4678 12.559 22.459 12.5811 22.459H28.4189C28.441 22.459 28.4621 22.4678 28.4776 22.4833C28.4932 22.4989 28.502 22.52 28.502 22.542ZM13.0293 21.9612V19.1401H15.6191V21.9612H13.0293ZM16.1172 21.9612V19.1401H18.707V21.9612H16.1172ZM19.2051 21.9612V19.1401H21.7949V21.9612H19.2051ZM22.293 21.9612V19.1401H24.8828V21.9612H22.293ZM25.3809 21.9612V19.1401H27.9707V21.9612H25.3809ZM28.502 18.0614V18.5592C28.502 18.5812 28.4932 18.6024 28.4776 18.6179C28.4621 18.6335 28.441 18.6422 28.4189 18.6422H12.5811C12.559 18.6422 12.5379 18.6335 12.5224 18.6179C12.5068 18.6024 12.498 18.5812 12.498 18.5592V18.0614C12.498 18.0394 12.5068 18.0183 12.5224 18.0027C12.5379 17.9872 12.559 17.9784 12.5811 17.9784H28.4189C28.441 17.9784 28.4621 17.9872 28.4776 18.0027C28.4932 18.0183 28.502 18.0394 28.502 18.0614ZM13.0293 17.4806V14.6595H15.6191V17.4806H13.0293ZM16.1172 17.4806V14.6595H18.707V17.4806H16.1172ZM19.2051 17.4806V14.6595H21.7949V17.4806H19.2051ZM22.293 17.4806V14.6595H24.8828V17.4806H22.293ZM25.3809 17.4806V14.6595H27.9707V17.4806H25.3809ZM28.4189 14.1616H12.5811C12.559 14.1616 12.5379 14.1529 12.5224 14.1373C12.5068 14.1218 12.498 14.1007 12.498 14.0787V13.5808C12.498 13.5588 12.5068 13.5377 12.5224 13.5221C12.5379 13.5066 12.559 13.4978 12.5811 13.4978H28.4189C28.441 13.4978 28.4621 13.5066 28.4776 13.5221C28.4932 13.5377 28.502 13.5588 28.502 13.5808V14.0787C28.502 14.1007 28.4932 14.1218 28.4776 14.1373C28.4621 14.1529 28.441 14.1616 28.4189 14.1616ZM13.861 28.7816H16.5156C16.5817 28.7816 16.645 28.7554 16.6917 28.7087C16.7384 28.662 16.7646 28.5987 16.7646 28.5327V26.8988C16.7646 26.8328 16.7384 26.7694 16.6917 26.7228C16.645 26.6761 16.5817 26.6498 16.5156 26.6498H13.861C13.795 26.6498 13.7316 26.6761 13.6849 26.7228C13.6382 26.7694 13.612 26.8328 13.612 26.8988V28.5327C13.612 28.5987 13.6382 28.662 13.6849 28.7087C13.7316 28.7554 13.795 28.7816 13.861 28.7816ZM14.1101 27.1477H16.2649V28.2838H14.1101V27.1477ZM24.486 28.7816H27.1406C27.2067 28.7816 27.27 28.7554 27.3167 28.7087C27.3634 28.662 27.3896 28.5987 27.3896 28.5327V26.8988C27.3896 26.8328 27.3634 26.7694 27.3167 26.7228C27.27 26.6761 27.2067 26.6498 27.1406 26.6498H24.4877C24.4217 26.6498 24.3583 26.6761 24.3116 26.7228C24.2649 26.7694 24.2387 26.8328 24.2387 26.8988V28.5327C24.2387 28.5984 24.2647 28.6615 24.311 28.7081C24.3574 28.7548 24.4203 28.7812 24.486 28.7816ZM24.7351 27.1477H26.8899V28.2838H24.7351V27.1477Z" fill="#004761"/>
</svg>
