<svg width="14" height="14" viewBox="0 0 14 14" fill="none" xmlns="http://www.w3.org/2000/svg">
<path d="M9.71046 12.2309C10.084 11.7946 10.4112 11.2752 10.6754 10.6842H11.5975C11.0828 11.3253 10.4401 11.8521 9.71046 12.2309ZM2.40209 10.6842H3.32425C3.58804 11.2752 3.91557 11.7946 4.28914 12.2309C3.5594 11.8522 2.91669 11.3254 2.40209 10.6842ZM4.28914 1.7688C3.91557 2.20501 3.58804 2.72449 3.32425 3.3158H2.40209C2.91676 2.67459 3.55945 2.14772 4.28914 1.7688ZM11.5975 3.3158H10.6754C10.4112 2.72449 10.084 2.20501 9.71046 1.7688C10.4402 2.1476 11.0829 2.67449 11.5975 3.3158ZM11.4085 6.63159C11.3746 5.70833 11.2162 4.83701 10.9561 4.05264H12.0993C12.5554 4.84013 12.8213 5.72321 12.8759 6.63159H11.4085ZM11.4085 7.36843H12.8759C12.8213 8.2768 12.5553 9.15987 12.0993 9.94738H10.9561C11.2162 9.16301 11.3746 8.2917 11.4085 7.36843ZM7.36841 9.94738V7.36843H10.6724C10.6363 8.30459 10.465 9.17996 10.1872 9.94738H7.36841ZM7.36841 12.8649V10.6842H9.8733C9.27057 11.8864 8.38046 12.7039 7.36841 12.8649ZM6.63157 10.6842V12.8649C5.61951 12.7039 4.72904 11.8864 4.1263 10.6842H6.63157ZM3.3272 7.36843H6.63157V9.94738H3.81241C3.53462 9.17996 3.3633 8.30459 3.3272 7.36843ZM2.59109 6.63159H1.12367C1.17852 5.7233 1.4443 4.8403 1.89993 4.05264H3.04388C2.78341 4.83701 2.62536 5.70833 2.59109 6.63159ZM6.63157 4.05264V6.63159H3.3272C3.3633 5.69543 3.53462 4.82007 3.81241 4.05264H6.63157ZM6.63157 1.13475V3.3158H4.1263C4.72941 2.11328 5.61951 1.29575 6.63157 1.13475ZM10.1872 4.05264C10.465 4.82007 10.6363 5.69543 10.6724 6.63159H7.36841V4.05264H10.1872ZM7.36841 3.3158V1.13475C8.38046 1.29575 9.2702 2.11328 9.87293 3.3158H7.36841ZM1.12367 7.36843H2.59109C2.62499 8.2917 2.78341 9.16301 3.04388 9.94738H1.89993C1.44435 9.15971 1.17857 8.27671 1.12367 7.36843ZM6.99999 0.368434C3.33751 0.368434 0.368408 3.33754 0.368408 7.00001C0.368408 10.6625 3.33751 13.6316 6.99999 13.6316C10.6625 13.6316 13.6316 10.6625 13.6316 7.00001C13.6316 3.33754 10.6625 0.368434 6.99999 0.368434Z" fill="#2F3437"/>
</svg>
