<svg width="16" height="18" viewBox="0 0 16 18" fill="none" xmlns="http://www.w3.org/2000/svg">
<path d="M15.3845 2.40263H11.0153C10.8255 1.49153 10.2131 0.717683 9.35722 0.30752C8.50117 -0.102506 7.49869 -0.102506 6.64268 0.30752C5.78677 0.717683 5.17441 1.49153 4.98459 2.40263H0.615374C0.395457 2.40263 0.192307 2.51698 0.0824173 2.70258C-0.0274724 2.88817 -0.0274724 3.11689 0.0824173 3.30248C0.192307 3.48808 0.395464 3.60243 0.615374 3.60243H1.23076V13.8546C1.23199 14.9537 1.68048 16.0073 2.47773 16.7844C3.27485 17.5616 4.3556 17.9988 5.48309 18H10.5169C11.6444 17.9988 12.7252 17.5616 13.5223 16.7844C14.3195 16.0073 14.768 14.9538 14.7692 13.8546V3.60243H15.3846C15.6045 3.60243 15.8077 3.48808 15.9176 3.30248C16.0275 3.11689 16.0275 2.88817 15.9176 2.70258C15.8077 2.51698 15.6045 2.40263 15.3846 2.40263H15.3845ZM7.99993 1.20282C8.38164 1.20322 8.7539 1.31878 9.0656 1.53357C9.37727 1.74849 9.61311 2.05192 9.74086 2.40264H6.259C6.38674 2.05195 6.6226 1.7485 6.93426 1.53357C7.24594 1.31878 7.61818 1.20322 7.99993 1.20282ZM13.5384 13.8546C13.5374 14.6356 13.2187 15.3842 12.6523 15.9364C12.0859 16.4886 11.3179 16.7993 10.5168 16.8002H5.48298C4.68189 16.7993 3.9139 16.4886 3.34753 15.9364C2.78106 15.3843 2.46237 14.6356 2.46142 13.8546V3.60243H13.5383L13.5384 13.8546Z" fill="#535557"/>
<path d="M6.5 5C6.63259 5 6.75982 5.06146 6.85357 5.17083C6.94732 5.28021 7 5.42865 7 5.58333V11.4167C7 11.6251 6.90469 11.8177 6.75 11.9219C6.59531 12.026 6.40469 12.026 6.25 11.9219C6.09531 11.8177 6 11.6251 6 11.4167V5.58333C6 5.42865 6.05268 5.28021 6.14643 5.17083C6.24018 5.06146 6.36741 5 6.5 5Z" fill="#535557"/>
<path d="M9.5 5C9.36741 5 9.24018 5.06146 9.14643 5.17083C9.05268 5.28021 9 5.42865 9 5.58333V11.4167C9 11.6251 9.09531 11.8177 9.25 11.9219C9.40469 12.026 9.59531 12.026 9.75 11.9219C9.90469 11.8177 10 11.6251 10 11.4167V5.58333C10 5.42865 9.94732 5.28021 9.85357 5.17083C9.75982 5.06146 9.63259 5 9.5 5Z" fill="#535557"/>
</svg>
