<svg width="16" height="23" viewBox="0 0 16 23" fill="none" xmlns="http://www.w3.org/2000/svg">
<path fill-rule="evenodd" clip-rule="evenodd" d="M4.44444 17.3476V14.4563C4.44444 14.1275 4.58489 13.8128 4.83466 13.5807C5.08444 13.3477 5.424 13.2172 5.77778 13.2172C6.78222 13.2172 9.21778 13.2172 10.2222 13.2172C10.576 13.2172 10.9147 13.3477 11.1644 13.5807C11.4151 13.8128 11.5556 14.1275 11.5556 14.4563V17.3476H12.0507C12.6204 17.3476 13.1298 17.6797 13.3236 18.177C13.5173 18.6751 13.3547 19.2319 12.9173 19.5714C11.6809 20.5288 9.62844 22.1182 8.86578 22.7088C8.36444 23.0971 7.63556 23.0971 7.13333 22.7088C6.37156 22.1182 4.31911 20.5288 3.08178 19.5714C2.64444 19.2319 2.48178 18.6751 2.67645 18.177C2.87022 17.6797 3.37867 17.3476 3.94844 17.3476H4.44444ZM16 16.4298C16 12.7819 16 6.21786 16 2.56991C16 1.9074 15.7529 1.27381 15.328 0.804596C14.8533 0.280865 14.2018 0 13.5307 0C10.7947 0 5.20533 0 2.46844 0C1.79733 0 1.14667 0.280865 0.671112 0.804596C0.246223 1.27381 0 1.9074 0 2.56991C0 6.21786 0 12.7819 0 16.4298C0 16.8858 0.398222 17.2559 0.888889 17.2559C1.37956 17.2559 1.77778 16.8858 1.77778 16.4298C1.77778 12.7819 1.77778 6.21786 1.77778 2.56991C1.77778 2.30805 1.86311 2.05445 2.03111 1.86941C2.14933 1.73889 2.30222 1.65215 2.46844 1.65215C5.20533 1.65215 10.7947 1.65215 13.5307 1.65215C13.6978 1.65215 13.8498 1.73889 13.968 1.86941C14.136 2.05445 14.2222 2.30805 14.2222 2.56991C14.2222 6.21786 14.2222 12.7819 14.2222 16.4298C14.2222 16.8858 14.6204 17.2559 15.1111 17.2559C15.6018 17.2559 16 16.8858 16 16.4298ZM4.44444 11.5651H11.5556C12.0462 11.5651 12.4444 11.195 12.4444 10.739C12.4444 10.283 12.0462 9.9129 11.5556 9.9129H4.44444C3.95378 9.9129 3.55555 10.283 3.55555 10.739C3.55555 11.195 3.95378 11.5651 4.44444 11.5651ZM4.44444 8.26075H11.5556C12.0462 8.26075 12.4444 7.89067 12.4444 7.43468C12.4444 6.97868 12.0462 6.6086 11.5556 6.6086H4.44444C3.95378 6.6086 3.55555 6.97868 3.55555 7.43468C3.55555 7.89067 3.95378 8.26075 4.44444 8.26075ZM4.44444 4.95645H9.77778C10.2684 4.95645 10.6667 4.58637 10.6667 4.13038C10.6667 3.67438 10.2684 3.3043 9.77778 3.3043H4.44444C3.95378 3.3043 3.55555 3.67438 3.55555 4.13038C3.55555 4.58637 3.95378 4.95645 4.44444 4.95645Z" fill="#7B868A"/>
</svg>
