<svg width="21" height="25" viewBox="0 0 21 25" fill="none" xmlns="http://www.w3.org/2000/svg">
<path d="M17.385 8.82353H15V1.47059C15 0.661765 14.325 0 13.5 0H7.5C6.675 0 6 0.661765 6 1.47059V8.82353H3.615C2.28 8.82353 1.605 10.4118 2.55 11.3382L9.435 18.0882C10.02 18.6618 10.965 18.6618 11.55 18.0882L18.435 11.3382C19.38 10.4118 18.72 8.82353 17.385 8.82353ZM0 23.5294C0 24.3382 0.675 25 1.5 25H19.5C20.325 25 21 24.3382 21 23.5294C21 22.7206 20.325 22.0588 19.5 22.0588H1.5C0.675 22.0588 0 22.7206 0 23.5294Z" fill="#494553"/>
</svg>
