<svg width="17" height="17" viewBox="0 0 17 17" fill="none" xmlns="http://www.w3.org/2000/svg">
<g clip-path="url(#clip0_1_219)">
<path d="M2.47917 17H13.1042C13.7627 16.9981 14.3936 16.7351 14.8584 16.2685C15.3232 15.802 15.5839 15.1702 15.5833 14.5116V9.17291C15.5833 8.98504 15.5087 8.80488 15.3759 8.67204C15.243 8.5392 15.0629 8.46457 14.875 8.46457C14.6871 8.46457 14.507 8.5392 14.3741 8.67204C14.2413 8.80488 14.1667 8.98504 14.1667 9.17291V14.5116C14.1676 14.7945 14.0563 15.0663 13.8571 15.2672C13.6579 15.4681 13.3871 15.5818 13.1042 15.5833H2.47917C2.19624 15.5818 1.92547 15.4681 1.72627 15.2672C1.52707 15.0663 1.41573 14.7945 1.41667 14.5116V3.90503C1.41573 3.6221 1.52707 3.35036 1.72627 3.14943C1.92547 2.94851 2.19624 2.83482 2.47917 2.83332H7.79167C7.97953 2.83332 8.1597 2.7587 8.29253 2.62586C8.42537 2.49302 8.5 2.31285 8.5 2.12499C8.5 1.93713 8.42537 1.75696 8.29253 1.62412C8.1597 1.49128 7.97953 1.41666 7.79167 1.41666H2.47917C1.82063 1.41853 1.18974 1.6816 0.72495 2.14811C0.260158 2.61463 -0.000564606 3.24649 9.18077e-07 3.90503V14.5116C-0.000564606 15.1702 0.260158 15.802 0.72495 16.2685C1.18974 16.7351 1.82063 16.9981 2.47917 17Z" fill="#7B868A"/>
</g>
<path d="M3.66593 10.5029L3.10705 13.0628C3.08176 13.1789 3.08608 13.2995 3.11963 13.4135C3.15317 13.5275 3.21486 13.6313 3.29901 13.7152C3.38432 13.797 3.4881 13.857 3.60154 13.8902C3.71498 13.9234 3.83474 13.9287 3.95068 13.9057L6.50493 13.3454C6.63756 13.3163 6.75902 13.2497 6.85485 13.1535L13.3106 6.69773C13.508 6.5004 13.6645 6.26612 13.7713 6.00828C13.8781 5.75044 13.9331 5.47409 13.9331 5.195C13.9331 4.91591 13.8781 4.63955 13.7713 4.38171C13.6645 4.12387 13.508 3.8896 13.3106 3.69227C12.906 3.30562 12.3679 3.08984 11.8082 3.08984C11.2486 3.08984 10.7105 3.30562 10.3058 3.69227L3.86001 10.1544C3.76327 10.2496 3.6959 10.3705 3.66593 10.5029ZM11.3074 4.69456C11.4422 4.56546 11.6216 4.49339 11.8082 4.49339C11.9948 4.49339 12.1743 4.56546 12.309 4.69456C12.4401 4.82817 12.5135 5.00785 12.5135 5.195C12.5135 5.38214 12.4401 5.56182 12.309 5.69544L11.8082 6.19623L10.8066 5.19464L11.3074 4.69456ZM5.00326 11.0086L9.80151 6.19835L10.7932 7.19498L5.9928 12.0067L4.72135 12.2858L5.00326 11.0086Z" fill="#7B868A"/>
<defs>
<clipPath id="clip0_1_219">
<rect width="17" height="17" fill="white"/>
</clipPath>
</defs>
</svg>
