<svg width="41" height="36" viewBox="0 0 41 36" fill="none" xmlns="http://www.w3.org/2000/svg">
<path d="M36.9009 2.66723H35.5074V2.03218C35.5074 0.917326 34.6194 3.74065e-05 33.54 3.74065e-05C32.4607 3.74065e-05 31.5727 0.917326 31.5727 2.03218V2.66723H9.57714V1.56649C9.57714 0.705648 8.89403 0 8.0606 0H7.15889C6.3255 0 5.64235 0.705609 5.64235 1.56649V2.66723H3.44279C1.54377 2.66723 0 4.26184 0 6.2234V32.4438C0 34.4054 1.54377 36 3.44279 36H37.5572C39.4562 36 41 34.4054 41 32.4438V6.2234C40.9863 4.12069 39.306 2.66723 36.9014 2.66723H36.9009ZM32.9252 2.03218C32.9252 1.67937 33.1985 1.39713 33.54 1.39713C33.8816 1.39713 34.1548 1.67937 34.1548 2.03218V4.68519C34.1548 5.05211 33.8816 5.33433 33.54 5.33433C33.1985 5.33433 32.9252 5.05209 32.9252 4.69929V2.03218ZM6.98124 1.56648C6.98124 1.4818 7.06322 1.39713 7.14519 1.39713H8.0469C8.12887 1.39713 8.21084 1.4818 8.21084 1.56648V5.16511C8.21084 5.24978 8.12887 5.33445 8.0469 5.33445H7.14519C7.06322 5.33445 6.98124 5.24978 6.98124 5.16511V1.56648ZM3.42903 4.06427H5.64233V5.165C5.64233 6.02584 6.32544 6.73149 7.15887 6.73149H8.06057C8.89397 6.73149 9.57712 6.02588 9.57712 5.165V4.06427H31.5864V4.6852C31.5864 5.80005 32.4745 6.71734 33.5538 6.71734C34.6331 6.71734 35.5075 5.82828 35.5211 4.6852V4.06427H36.9146C38.5814 4.06427 39.647 4.91099 39.647 6.22337V7.98739H1.33812V6.22337C1.33812 5.02384 2.26714 4.06427 3.42838 4.06427H3.42903ZM37.5434 34.6031H3.42903C2.28141 34.6031 1.33877 33.6294 1.33877 32.444V9.38473H39.6339V32.444C39.6339 33.6295 38.7049 34.6031 37.5437 34.6031H37.5434Z" fill="#E9CD8B"/>
<path d="M26.8041 25.4408L23.8267 24.2227V24.2228C23.5448 24.1065 23.3453 23.85 23.302 23.5481C24.4705 23.0443 25.2865 21.9615 25.4488 20.6996C25.4749 20.5526 25.4913 20.4042 25.4984 20.2551V19.4627C25.4965 19.4485 25.4935 19.4345 25.4893 19.4207C25.4729 19.2826 25.3595 19.1763 25.2205 19.1692C25.0816 19.1619 24.9578 19.2558 24.9271 19.3914C24.9194 19.4145 24.9146 19.4385 24.913 19.4627V20.2551C24.913 21.353 24.3272 22.3676 23.3762 22.9167C22.4253 23.4657 21.2537 23.4657 20.3028 22.9167C19.3518 22.3676 18.766 21.353 18.766 20.2551V19.4627C18.766 19.4229 18.7576 19.3835 18.7413 19.3473C18.6864 19.2201 18.5497 19.149 18.414 19.1768C18.2784 19.2048 18.1808 19.3242 18.1806 19.4627V20.2551C18.1864 20.404 18.2016 20.5525 18.2263 20.6996C18.3869 21.9593 19.1988 23.0415 20.3634 23.5481C20.3221 23.852 20.1222 24.111 19.8387 24.2279L16.8665 25.4408C16.0183 25.7877 15.2926 26.3794 14.7821 27.1404C14.2716 27.9013 13.9993 28.7973 14 29.7136C14.002 29.8724 14.1313 30 14.29 30H29.3797C29.5399 30 29.6697 29.8701 29.6697 29.7099C29.6697 28.7943 29.3972 27.8994 28.8868 27.1391C28.3764 26.3789 27.6514 25.7877 26.804 25.4408L26.8041 25.4408ZM24.4466 29.4197L19.2232 29.4198V28.2586H24.4466V29.4197ZM20.4691 24.4999L21.4435 25.6318L20.8596 26.2157L20.2299 24.6625L20.23 24.6626C20.3149 24.6164 20.395 24.562 20.4692 24.5L20.4691 24.4999ZM22.5762 26.7989L22.2195 27.6761H21.4504L21.0937 26.7968L21.835 26.0576L22.5762 26.7989ZM23.4435 24.6625L22.8138 26.2157L22.2298 25.6318L23.2043 24.4999L23.2044 24.5C23.2786 24.562 23.3587 24.6164 23.4436 24.6626L23.4435 24.6625ZM20.8198 27.6782L20.2847 27.6783L19.182 25.1207L19.6993 24.9086L20.8198 27.6782ZM22.8438 27.6782L23.9682 24.9084L24.4855 25.1205L23.3852 27.6761L22.8438 27.6782ZM21.8378 23.8552L21.838 23.8553C22.1462 23.8512 22.4526 23.8086 22.7502 23.7286C22.7725 23.8278 22.8058 23.9243 22.8492 24.0164L21.835 25.2023L20.8185 24.0164C20.8623 23.9232 20.8958 23.8253 20.9182 23.7248C21.2188 23.8065 21.5286 23.8495 21.8402 23.853L21.8378 23.8552ZM17.086 25.9781L18.6453 25.3403L19.6527 27.6761H18.9781C18.7934 27.6761 18.6438 27.8257 18.6438 28.0104V29.4174H17.1947V28.1258C17.1868 27.9699 17.0581 27.8475 16.902 27.8475C16.7458 27.8475 16.6172 27.9699 16.6093 28.1258V29.4227H14.5906C14.6424 28.6725 14.9038 27.9519 15.3451 27.343C15.7862 26.7341 16.3894 26.2613 17.086 25.9782L17.086 25.9781ZM27.0603 29.4195V28.1257C27.0603 27.9642 26.9294 27.8333 26.768 27.8333C26.6065 27.8333 26.4756 27.9642 26.4756 28.1257V29.4225H25.0266V28.0125C25.0266 27.8277 24.877 27.6782 24.6923 27.6782H24.0176L25.0251 25.3401L26.5843 25.978C27.2805 26.2608 27.8834 26.7332 28.3245 27.3416C28.7656 27.95 29.0273 28.6698 29.0797 29.4195H27.0603Z" fill="#004761"/>
<path d="M18.1821 19.4625C18.1824 19.3239 18.2799 19.2046 18.4155 19.1766C18.5512 19.1487 18.6878 19.2199 18.7428 19.347V19.3178H19.1679L19.182 19.4249C19.2147 19.6328 19.3213 19.8219 19.4823 19.9571C19.6435 20.0924 19.848 20.1648 20.0584 20.1611H20.8013C21.0115 20.1647 21.216 20.0922 21.3771 19.9569C21.5382 19.8216 21.6449 19.6327 21.6776 19.4249L21.6918 19.3177H21.9789L21.9931 19.4249C22.0257 19.6327 22.1324 19.8218 22.2934 19.9571C22.4545 20.0924 22.6591 20.1648 22.8694 20.161H23.6124C23.8226 20.1647 24.0271 20.0921 24.1881 19.9569C24.3493 19.8216 24.4559 19.6327 24.4887 19.4249L24.5029 19.3177H24.9272V19.3926C24.9578 19.257 25.0816 19.1631 25.2206 19.1704C25.3595 19.1775 25.4729 19.2838 25.4894 19.4219V18.5223C25.7091 18.5995 25.8872 18.7643 25.9811 18.9774C26.0749 19.1906 26.0763 19.433 25.9848 19.6473C25.8933 19.8615 25.7173 20.0281 25.4984 20.1078V20.2548C25.4926 20.4037 25.4774 20.5522 25.4526 20.6993H25.4707C25.9484 20.6103 26.3462 20.2804 26.5218 19.8271C26.6975 19.374 26.6258 18.8621 26.3327 18.4744V17.0921C26.3769 16.8208 26.6753 14.6746 25.4752 13.2437C24.6917 12.3835 23.5579 11.9287 22.3972 12.0091C20.2429 12.0091 19.4047 12.9836 19.1438 13.4033C18.7364 13.3988 18.3402 13.5361 18.0231 13.7917C17.5262 14.2817 17.2746 14.9684 17.3372 15.6635V18.4745C17.1137 18.7728 17.0178 19.1475 17.0705 19.5166C17.1232 19.8856 17.3202 20.2185 17.6183 20.4423C17.7955 20.5678 17.9974 20.6541 18.2105 20.6956H18.2277C18.2032 20.5498 18.1879 20.4026 18.182 20.2549L18.1821 19.4625ZM21.2705 18.2263L21.1205 19.3508C21.09 19.501 20.9544 19.6064 20.8013 19.5989H20.0584C19.9039 19.6081 19.7661 19.5018 19.7361 19.35L19.5861 18.2256C19.5771 18.1519 19.6006 18.078 19.6506 18.0232C19.7155 17.9511 19.8085 17.9107 19.9055 17.9122H20.9498H20.9496C21.0466 17.9108 21.1395 17.9513 21.2045 18.0232C21.2547 18.0779 21.278 18.152 21.2683 18.2256L21.2705 18.2263ZM24.0816 18.2263L23.9316 19.3508C23.9011 19.501 23.7654 19.6064 23.6123 19.5989H22.8694C22.7159 19.6066 22.58 19.5007 22.5502 19.35L22.4002 18.2256C22.391 18.1519 22.4146 18.078 22.4647 18.0232C22.5296 17.9511 22.6226 17.9107 22.7196 17.9122H23.7638H23.7637C23.8607 17.9108 23.9536 17.9513 24.0186 18.0232C24.0688 18.0779 24.0921 18.152 24.0823 18.2256L24.0816 18.2263ZM24.9271 18.7555H24.5785L24.6392 18.3005C24.6691 18.0666 24.5973 17.8312 24.4421 17.6536C24.2701 17.4592 24.0225 17.3485 23.7629 17.35H22.7188C22.46 17.3478 22.2128 17.4569 22.0404 17.6498C21.8849 17.8269 21.8134 18.0625 21.844 18.296L21.9032 18.7555H21.7674L21.8282 18.3005C21.858 18.0666 21.7862 17.8312 21.631 17.6536C21.4591 17.4592 21.2115 17.3485 20.9518 17.35H19.9077C19.649 17.3478 19.4017 17.4569 19.2293 17.6498C19.0738 17.8269 19.0023 18.0624 19.0329 18.296L19.0922 18.7555H18.7428V17.0082C19.315 16.8704 19.8608 16.6393 20.3583 16.3245C21.1201 17.0756 22.1754 17.451 23.2405 17.35C23.334 17.3503 23.4215 17.3041 23.474 17.2267C23.5265 17.1492 23.537 17.0507 23.5021 16.964L23.2465 16.3254V16.3252C23.7847 16.62 24.3469 16.8687 24.9271 17.0689L24.9271 18.7555ZM25.7704 18.0299C25.6802 17.9902 25.586 17.9602 25.4893 17.9407V17.2376C25.5831 17.2608 25.6767 17.2833 25.7704 17.3028V18.0299ZM17.8995 15.6634C17.8435 15.1365 18.0195 14.6111 18.3815 14.2241C18.63 14.0276 18.946 13.9374 19.2608 13.973C19.3906 13.9937 19.5176 13.9218 19.5667 13.7998C19.5712 13.7879 20.0846 12.5712 22.3972 12.5712C23.3899 12.4949 24.3634 12.8746 25.0426 13.6027C25.6778 14.5156 25.9506 15.6323 25.8079 16.7354C24.754 16.4588 23.7503 16.018 22.8334 15.4295C22.7311 15.3618 22.5967 15.3682 22.5013 15.4454C22.4061 15.5226 22.3717 15.6527 22.4166 15.7668L22.8184 16.7735C21.1461 16.6567 20.6985 15.8523 20.6805 15.8179C20.6453 15.7444 20.5799 15.6898 20.5013 15.6679C20.4769 15.6619 20.4516 15.6591 20.4264 15.6596C20.3709 15.6598 20.3167 15.6762 20.2705 15.7068C19.5835 16.2207 18.7541 16.5089 17.8965 16.5314L17.8995 15.6634ZM18.1806 20.1132C17.9597 20.0353 17.7813 19.8691 17.6878 19.6544C17.5943 19.4398 17.5943 19.1959 17.6878 18.9813C17.7813 18.7665 17.9597 18.6004 18.1806 18.5225V20.1132ZM18.1806 17.9393C18.0841 17.9594 17.9898 17.9892 17.8995 18.0285V17.099C17.9804 17.099 18.0749 17.099 18.1806 17.0922V17.9393Z" fill="#004761"/>
<path d="M23.2404 18.1935C23.0852 18.1935 22.9593 18.3193 22.9593 18.4746V19.0368C22.9593 19.192 23.0852 19.3179 23.2404 19.3179C23.3956 19.3179 23.5215 19.192 23.5215 19.0368V18.4746C23.5217 18.3999 23.4921 18.3284 23.4394 18.2755C23.3866 18.2228 23.3151 18.1932 23.2404 18.1935Z" fill="#004761"/>
<path d="M20.4294 18.1935C20.2741 18.1935 20.1482 18.3193 20.1482 18.4746V19.0368C20.1482 19.192 20.2741 19.3179 20.4294 19.3179C20.5846 19.3179 20.7105 19.192 20.7105 19.0368V18.4746C20.7107 18.3999 20.6811 18.3284 20.6284 18.2755C20.5756 18.2228 20.504 18.1932 20.4294 18.1935Z" fill="#004761"/>
<path d="M22.4562 21.4633C22.2882 21.6269 22.0629 21.7185 21.8283 21.7185C21.5938 21.7185 21.3686 21.6269 21.2006 21.4633C21.1438 21.4069 21.0669 21.3757 20.9869 21.3763C20.9072 21.3766 20.8308 21.4087 20.7748 21.4655C20.6911 21.5519 20.6672 21.68 20.7141 21.7908C20.7514 21.8693 20.8095 21.9359 20.882 21.9835C20.9544 22.0414 21.0311 22.0938 21.1114 22.1402C21.2804 22.2316 21.4654 22.2895 21.6563 22.3111C21.713 22.3178 21.7701 22.3209 21.8272 22.3208C22.2204 22.3213 22.5977 22.1661 22.8767 21.8891C22.9892 21.7766 22.9944 21.5962 22.8888 21.4775C22.7727 21.3552 22.5799 21.3488 22.4562 21.4633Z" fill="#004761"/>
</svg>
