<svg width="25" height="24" viewBox="0 0 25 24" fill="none" xmlns="http://www.w3.org/2000/svg">
<path d="M3.39519 0.000128501V5.04H0.0119629V18H3.39519V21.6H20.988V0L3.39519 0.000128501ZM3.39519 8.64013H5.1883L6.10183 10.08L7.01536 8.64013H8.80823L7.01512 11.5202L8.80823 14.4003H7.01512L6.10183 12.9604L5.1883 14.4003H3.39519L5.1883 11.5202L3.39519 8.64013ZM19.6347 20.1601H4.74848V18H12.1916V13.6801H17.6049V12.2402L12.1916 12.2399V10.8001H17.6049V9.3602H12.1916V7.92033H17.6049V6.48046L12.1916 6.48021V5.04033L4.74848 5.04008V1.44008H19.6347V20.1601Z" fill="#6EDD79"/>
<ellipse cx="19.884" cy="19.2" rx="4.416" ry="4.8" fill="#494553"/>
<path d="M21.6914 19.3412H21.0645V17.2235C21.0645 16.9906 20.8871 16.8 20.6702 16.8H19.0931C18.8762 16.8 18.6988 16.9906 18.6988 17.2235V19.3412H18.0719C17.721 19.3412 17.5435 19.7986 17.7919 20.0654L19.6017 22.0094C19.7555 22.1746 20.0039 22.1746 20.1577 22.0094L21.9674 20.0654C22.2158 19.7986 22.0424 19.3412 21.6914 19.3412Z" fill="white"/>
</svg>
