<svg width="44" height="44" viewBox="0 0 44 44" fill="none" xmlns="http://www.w3.org/2000/svg">
<path d="M11.7021 23.4043C18.1547 23.4043 23.4043 18.1548 23.4043 11.7021C23.4043 5.24954 18.1551 0 11.7021 0C5.24913 0 0 5.24946 0 11.7021C0 18.1544 5.24978 23.4043 11.7021 23.4043ZM11.7021 1.35236C17.4088 1.35236 22.0519 5.99552 22.0519 11.7021C22.0519 17.4087 17.4087 22.0519 11.7021 22.0519C5.99487 22.0519 1.35155 17.4091 1.35155 11.7021C1.35155 5.9952 5.99471 1.35236 11.7021 1.35236Z" fill="#E9CD8B"/>
<path d="M20.5957 32.2979C20.5957 38.7501 25.8448 44 32.2978 44C38.7508 44 44 38.7505 44 32.2979C44 25.8453 38.7508 20.5957 32.2978 20.5957C25.8448 20.5957 20.5957 25.8452 20.5957 32.2979ZM32.2978 21.9481C38.0045 21.9481 42.6476 26.5913 42.6476 32.2979C42.6476 38.0045 38.0044 42.6476 32.2978 42.6476C26.5911 42.6476 21.9481 38.0048 21.9481 32.2979C21.9481 26.5909 26.5912 21.9481 32.2978 21.9481Z" fill="#E9CD8B"/>
<path d="M32.2979 41.1915C37.2016 41.1915 41.1915 37.2019 41.1915 32.2979C41.1915 27.3939 37.2019 23.4043 32.2979 23.4043C27.3939 23.4043 23.4043 27.3939 23.4043 32.2979C23.4046 37.2016 27.3939 41.1915 32.2979 41.1915ZM32.2979 24.7409C36.4649 24.7409 39.8547 28.1309 39.8547 32.298C39.8547 36.465 36.4649 39.8547 32.2979 39.8547C28.1309 39.8547 24.7412 36.465 24.7412 32.298C24.7412 28.1309 28.1309 24.7409 32.2979 24.7409Z" fill="#E9CD8B"/>
<path d="M31.8264 36.1053C31.0147 36.1053 30.3542 35.4084 30.3542 34.5514C30.3542 34.1648 30.0561 33.8515 29.6877 33.8515C29.3193 33.8515 29.0212 34.1648 29.0212 34.5514C29.0212 35.9372 29.9353 37.0944 31.1595 37.4113V37.6831C31.1595 38.0697 31.4576 38.383 31.826 38.383C32.1944 38.383 32.4925 38.0697 32.4925 37.6831V37.4119C33.7208 37.0956 34.638 35.9379 34.638 34.5514C34.638 32.9233 33.3767 31.5983 31.826 31.5983C31.0143 31.5983 30.3538 30.9013 30.3538 30.0444C30.3538 29.1878 31.0144 28.4904 31.826 28.4904C32.6413 28.4904 33.3053 29.1874 33.3053 30.0444C33.3053 30.4309 33.6034 30.7443 33.9718 30.7443C34.3402 30.7443 34.6383 30.4309 34.6383 30.0444C34.6383 28.6579 33.7211 27.5001 32.4928 27.1838V26.9127C32.4928 26.5261 32.1947 26.2128 31.8263 26.2128C31.4579 26.2128 31.1598 26.5261 31.1598 26.9127V27.1845C29.9353 27.5014 29.0215 28.6589 29.0215 30.0443C29.0215 31.6728 30.2794 32.9977 31.8264 32.9977C32.6417 32.9977 33.3057 33.6944 33.3057 34.5513C33.3057 35.4078 32.642 36.1052 31.8264 36.1052V36.1053Z" fill="#004761"/>
<path d="M26.8749 5.61702C26.5088 5.61702 26.2126 5.92024 26.2126 6.29436C26.2126 6.66848 26.5088 6.9717 26.8749 6.9717C30.0042 6.9717 32.55 9.576 32.55 12.7769V15.4758L31.0433 13.9347C30.7846 13.6701 30.3657 13.6701 30.107 13.9347C29.8483 14.1993 29.8483 14.6279 30.107 14.8924L32.7431 17.5888C33.0006 17.8527 33.422 17.854 33.6804 17.5888L36.3165 14.8924C36.5752 14.6278 36.5752 14.1993 36.3165 13.9347C36.0578 13.6701 35.6388 13.6701 35.3802 13.9347L33.8734 15.4758L33.8741 12.7767C33.8741 8.82909 30.7345 5.61717 26.8748 5.61717L26.8749 5.61702Z" fill="#004761"/>
<path d="M17.0649 38.383C17.4642 38.383 17.7873 38.0797 17.7873 37.7056C17.7873 37.3314 17.4642 37.0282 17.0649 37.0282C13.651 37.0282 10.8737 34.4237 10.8737 31.2228V28.5237L12.5174 30.0649C12.7996 30.3295 13.2567 30.3295 13.5389 30.0649C13.8211 29.8003 13.8211 29.3717 13.5389 29.1071L10.6631 26.4105C10.383 26.1472 9.92149 26.1465 9.64063 26.4105L6.76488 29.1071C6.48267 29.3717 6.48267 29.8003 6.76488 30.0649C7.04709 30.3295 7.50416 30.3295 7.78635 30.0649L9.43003 28.5237V31.2228C9.42902 35.171 12.8544 38.3829 17.0649 38.3829L17.0649 38.383Z" fill="#004761"/>
<path d="M11.7022 20.5957C16.6059 20.5957 20.5958 16.6061 20.5958 11.7021C20.5958 6.79813 16.6062 2.80851 11.7022 2.80851C6.79789 2.80882 2.80859 6.79845 2.80859 11.7021C2.80859 16.6058 6.79821 20.5949 11.7022 20.5949V20.5957ZM11.7022 4.14595C15.8692 4.14595 19.2589 7.536 19.2589 11.703C19.2589 15.87 15.8692 19.2597 11.7022 19.2597C7.5352 19.2597 4.14483 15.87 4.14483 11.703C4.14483 7.536 7.5352 4.14595 11.7022 4.14595Z" fill="#E9CD8B"/>
<path d="M11.752 18L9.106 13.38V12.764H9.414C9.90867 12.764 10.324 12.7173 10.66 12.624C11.0053 12.5307 11.276 12.3767 11.472 12.162C11.668 11.9473 11.7847 11.6533 11.822 11.28H9.106V10.384H11.808C11.7427 10.0387 11.612 9.75867 11.416 9.544C11.22 9.32 10.954 9.15667 10.618 9.054C10.2913 8.95133 9.89 8.9 9.414 8.9H9.106V8.004H14.902V8.9H12.256C12.4707 9.07733 12.648 9.28733 12.788 9.53C12.928 9.77267 13.0167 10.0573 13.054 10.384H14.902V11.28H13.082C13.0167 11.9613 12.7553 12.4933 12.298 12.876C11.85 13.2493 11.2527 13.4873 10.506 13.59L13.18 18H11.752Z" fill="#004761"/>
</svg>
