<svg width="17" height="12" viewBox="0 0 17 12" fill="none" xmlns="http://www.w3.org/2000/svg">
<path d="M4.53053 6.04071C5.78398 6.04071 6.79579 5.02889 6.79579 3.77544C6.79579 2.52199 5.78398 1.51018 4.53053 1.51018C3.27708 1.51018 2.26526 2.52199 2.26526 3.77544C2.26526 5.02889 3.27708 6.04071 4.53053 6.04071ZM13.5916 1.51018H9.06106C8.23046 1.51018 7.55088 2.18976 7.55088 3.02035V6.79579H1.51018V0.755088C1.51018 0.33979 1.17039 0 0.755088 0C0.33979 0 0 0.33979 0 0.755088V10.5712C0 10.9865 0.33979 11.3263 0.755088 11.3263C1.17039 11.3263 1.51018 10.9865 1.51018 10.5712V9.06106H15.1018V10.5712C15.1018 10.9865 15.4416 11.3263 15.8569 11.3263C16.2722 11.3263 16.6119 10.9865 16.6119 10.5712V4.53053C16.6119 2.86178 15.2603 1.51018 13.5916 1.51018Z" fill="#C96462"/>
</svg>
