<svg width="10" height="10" viewBox="0 0 10 10" fill="none" xmlns="http://www.w3.org/2000/svg">
<path d="M1.94947 5.28262H4.54206V7.87522C4.54206 8.00758 4.61267 8.12984 4.72725 8.19598C4.84183 8.26212 4.98304 8.26212 5.09762 8.19598C5.2122 8.12984 5.28281 8.00757 5.28281 7.87522V5.28262H7.8754C8.00776 5.28262 8.13003 5.21202 8.19617 5.09744C8.2623 4.98285 8.2623 4.84165 8.19617 4.72707C8.13003 4.61248 8.00776 4.54188 7.8754 4.54188H5.28281V1.94928C5.28281 1.81693 5.2122 1.69466 5.09762 1.62852C4.98304 1.56238 4.84183 1.56238 4.72725 1.62852C4.61267 1.69466 4.54206 1.81693 4.54206 1.94928V4.54188H1.94947C1.81711 4.54188 1.69484 4.61248 1.6287 4.72707C1.56257 4.84165 1.56257 4.98286 1.6287 5.09744C1.69484 5.21202 1.81711 5.28262 1.94947 5.28262Z" fill="#004761"/>
<path d="M9.64286 0H0.357143C0.262437 0 0.171555 0.0376286 0.104592 0.104592C0.0376286 0.171555 0 0.262437 0 0.357143V9.64286C0 9.73756 0.0376286 9.82844 0.104592 9.89541C0.171555 9.96237 0.262437 10 0.357143 10H9.64286C9.73756 10 9.82844 9.96237 9.89541 9.89541C9.96237 9.82844 10 9.73756 10 9.64286V0.357143C10 0.262437 9.96237 0.171555 9.89541 0.104592C9.82844 0.0376286 9.73756 0 9.64286 0ZM9.28571 9.28571H0.714286V0.714286H9.28571V9.28571Z" fill="#004761"/>
</svg>
