<svg width="8" height="8" viewBox="0 0 8 8" fill="none" xmlns="http://www.w3.org/2000/svg">
<path d="M0.949467 4.28262H3.54206V6.87522C3.54206 7.00758 3.61267 7.12984 3.72725 7.19598C3.84183 7.26212 3.98304 7.26212 4.09762 7.19598C4.2122 7.12984 4.28281 7.00757 4.28281 6.87522V4.28262H6.8754C7.00776 4.28262 7.13003 4.21202 7.19617 4.09744C7.2623 3.98285 7.2623 3.84165 7.19617 3.72707C7.13003 3.61248 7.00776 3.54188 6.8754 3.54188H4.28281V0.949284C4.28281 0.816926 4.2122 0.694659 4.09762 0.628522C3.98304 0.562384 3.84183 0.562384 3.72725 0.628522C3.61267 0.694659 3.54206 0.81693 3.54206 0.949284V3.54188H0.949467C0.817109 3.54188 0.694842 3.61248 0.628705 3.72707C0.562567 3.84165 0.562567 3.98286 0.628705 4.09744C0.694842 4.21202 0.817114 4.28262 0.949467 4.28262Z" fill="#004761"/>
</svg>
