<svg width="20" height="20" viewBox="0 0 20 20" fill="none" xmlns="http://www.w3.org/2000/svg">
<path d="M7.06537 0.019821C7.01068 0.0276349 6.83486 0.0549835 6.67468 0.0784252C5.98706 0.176099 5.0533 0.473026 4.40865 0.797303C2.11528 1.94985 0.572034 4.01272 0.0836658 6.57958C-0.0101008 7.07576 -0.0296356 8.43147 0.0485033 8.98235C0.302455 10.7405 1.07994 12.2954 2.32625 13.5378C4.22112 15.421 6.89737 16.218 9.51893 15.6789C10.6168 15.4522 11.7459 14.9483 12.6132 14.2997L12.8672 14.1083L15.7583 16.9916C17.6024 18.8278 18.7003 19.8944 18.794 19.9335C19.005 20.0312 19.3605 20.0195 19.5715 19.9101C19.8372 19.7694 19.9739 19.5467 19.9895 19.2224C20.0013 19.0232 19.9895 18.9138 19.9388 18.8044C19.8919 18.7028 18.9347 17.7144 16.9851 15.7609L14.1018 12.8698L14.1995 12.7525C14.3909 12.5181 14.7464 11.9633 14.9418 11.5805C15.4614 10.5881 15.7349 9.59965 15.8208 8.42756C15.9888 6.18107 15.1527 3.95411 13.5353 2.32882C12.3046 1.09423 10.7379 0.305028 9.01494 0.0549835C8.63596 0.000286306 7.35449 -0.0192484 7.06537 0.019821ZM8.91336 1.77404C10.9137 2.0905 12.7031 3.45402 13.5548 5.30201C14.6566 7.69306 14.1643 10.4435 12.3007 12.3033C9.85493 14.7529 5.94799 14.749 3.50615 12.2954C2.5763 11.3578 1.98635 10.2052 1.76365 8.8964C1.68942 8.4471 1.68161 7.43129 1.74802 7.02888C1.99416 5.5794 2.59192 4.41513 3.5921 3.45012C4.67432 2.41087 5.97924 1.82483 7.49514 1.69981C7.78425 1.67637 8.5461 1.71543 8.91336 1.77404Z" fill="#656565"/>
</svg>
