<svg width="23" height="26" viewBox="0 0 23 26" fill="none" xmlns="http://www.w3.org/2000/svg">
<path d="M22.5993 21.2184C21.4948 20.5551 20.8085 19.3566 20.8085 18.0909V12.5065C20.8085 10.08 19.8403 7.79877 18.082 6.08344C17.1245 5.14943 15.9667 4.42871 14.7042 3.97639V3.12657C14.7042 2.29133 14.3711 1.50591 13.7657 0.915651C13.1603 0.325127 12.356 0 11.5003 0C9.73382 0 8.29643 1.40276 8.29643 3.12657V3.97567C6.64364 4.56948 5.16864 5.62805 4.09448 7.00258C2.85 8.59551 2.19211 10.4985 2.19211 12.5063V18.0907C2.19211 19.3563 1.5058 20.5548 0.401304 21.2182C0.0799526 21.411 -0.0708466 21.789 0.0320113 22.143C0.134635 22.4973 0.466107 22.7417 0.843084 22.7417H7.40406C7.56666 23.521 7.9598 24.2374 8.55049 24.8112C9.33918 25.5778 10.3868 26 11.5 26C12.6132 26 13.6608 25.5778 14.4495 24.8112C15.0399 24.2371 15.4333 23.521 15.5959 22.7417H22.1569C22.5339 22.7417 22.8654 22.4973 22.968 22.143C23.0709 21.789 22.92 21.4112 22.5987 21.2182L22.5993 21.2184ZM11.5001 24.3546C10.4283 24.3546 9.51002 23.6884 9.15881 22.7585H13.8413C13.4901 23.6884 12.5718 24.3546 11.5001 24.3546ZM9.98246 3.12706C9.98246 2.31064 10.6635 1.64607 11.5001 1.64607C11.9055 1.64607 12.2866 1.80005 12.5732 2.07979C12.8599 2.35953 13.0177 2.73143 13.0177 3.12706V3.54362C12.9553 3.53375 12.8929 3.52411 12.8303 3.51541C12.7676 3.50695 12.7048 3.49872 12.6417 3.49096C12.5778 3.48344 12.5142 3.47639 12.4501 3.46981C12.4195 3.46675 12.3887 3.46416 12.3576 3.46134C12.3263 3.45876 12.2945 3.45617 12.263 3.45335C12.1314 3.44277 11.9997 3.43525 11.8674 3.43008C11.8453 3.42937 11.8233 3.42843 11.8014 3.42773C11.7646 3.42679 11.7282 3.42585 11.6916 3.42514C11.6696 3.42444 11.6475 3.4242 11.6251 3.4242C11.5836 3.4235 11.5417 3.42326 11.5003 3.42326C11.4584 3.42326 11.4167 3.4235 11.3748 3.4242C11.3529 3.4242 11.3309 3.42444 11.309 3.42514C11.2719 3.42585 11.2348 3.42679 11.1977 3.4282C11.1775 3.42843 11.157 3.42961 11.1363 3.43008C10.9684 3.43643 10.8007 3.44724 10.6338 3.46205C10.6102 3.4644 10.5863 3.46675 10.5627 3.46887C10.5425 3.47075 10.5223 3.47286 10.502 3.47521C10.4784 3.47756 10.4548 3.48015 10.4312 3.48274C10.4069 3.48532 10.383 3.48838 10.3589 3.49096C10.3014 3.49778 10.244 3.50507 10.1867 3.51306C10.1814 3.514 10.1759 3.51471 10.1706 3.51541C10.1079 3.52435 10.045 3.53375 9.98266 3.54362L9.98246 3.12706ZM2.92382 21.0965C3.01728 20.9634 3.10449 20.8263 3.18543 20.6851C3.63856 19.8938 3.87797 18.9969 3.87797 18.091V12.5066C3.87797 9.21478 6.13784 6.27669 9.37374 5.36134C10.061 5.16716 10.7765 5.06842 11.4999 5.06842C12.224 5.06842 12.939 5.16716 13.6256 5.36157C13.6265 5.36181 13.6275 5.36228 13.6287 5.36228C14.8539 5.70949 15.9813 6.36116 16.8892 7.24714C18.3291 8.65176 19.1218 10.5195 19.1218 12.5064V18.0908C19.1218 18.9968 19.3613 19.8936 19.8142 20.6849C19.8951 20.8261 19.9826 20.9632 20.0758 21.0963L2.92382 21.0965Z" fill="#737B7E"/>
</svg>
