<svg width="21" height="22" viewBox="0 0 21 22" fill="none" xmlns="http://www.w3.org/2000/svg">
<path d="M3.39519 0.000128501V5.04H0.0119629V18H3.39519V21.6H20.988V0L3.39519 0.000128501ZM3.39519 8.64013H5.1883L6.10183 10.08L7.01536 8.64013H8.80823L7.01512 11.5202L8.80823 14.4003H7.01512L6.10183 12.9604L5.1883 14.4003H3.39519L5.1883 11.5202L3.39519 8.64013ZM19.6347 20.1601H4.74848V18H12.1916V13.6801H17.6049V12.2402L12.1916 12.2399V10.8001H17.6049V9.3602H12.1916V7.92033H17.6049V6.48046L12.1916 6.48021V5.04033L4.74848 5.04008V1.44008H19.6347V20.1601Z" fill="#6EDD79"/>
</svg>
