<svg width="38" height="34" viewBox="0 0 38 34" fill="none" xmlns="http://www.w3.org/2000/svg">
<path d="M10.0938 6.85495C8.04739 6.85746 6.08555 7.67148 4.63855 9.11848C3.19154 10.5655 2.37751 12.5273 2.375 14.5737C2.375 18.8297 5.83775 22.2924 10.0938 22.2924C14.3486 22.2924 17.8125 18.8297 17.8125 14.5737C17.8125 10.3189 14.3486 6.85495 10.0938 6.85495ZM9.50001 8.16356V10.4175H5.15969C5.69968 9.77513 6.36092 9.24547 7.10564 8.85875C7.85036 8.47202 8.66397 8.2358 9.50001 8.16356ZM10.6875 8.16356C12.3755 8.30975 13.9364 9.1205 15.0266 10.4175H10.6875V8.16356ZM4.35932 11.6049H9.50001V13.9799H3.68245C3.7632 13.1249 3.98288 12.3317 4.35932 11.6049ZM10.6875 11.6049H15.827C16.2046 12.3317 16.4231 13.1249 16.5039 13.9799H10.6875V11.6049ZM3.68245 15.1674H9.50001V17.5424H4.35932C3.9816 16.8022 3.7517 15.9955 3.68245 15.1674ZM10.6875 15.1674H16.5039C16.4347 15.9955 16.2048 16.8022 15.827 17.5424H10.6875V15.1674ZM5.15969 18.7299H9.50001V20.985C8.66389 20.9127 7.85022 20.6762 7.1055 20.2893C6.36077 19.9024 5.69958 19.3725 5.15969 18.7299ZM10.6875 18.7299H15.0266C14.4869 19.3723 13.8259 19.9022 13.0814 20.2891C12.3369 20.676 11.5234 20.9125 10.6875 20.985V18.7299Z" fill="#E9CD8B"/>
<path fill-rule="evenodd" clip-rule="evenodd" d="M7.09133 7.71826C5.24239 12.2723 4.93602 16.6483 6.95477 21.3817L8.04727 20.915C6.14608 16.4583 6.42396 12.5229 8.19334 8.16597L7.09133 7.71826ZM13.0407 7.71826L11.9387 8.16597C13.7081 12.5229 13.986 16.4583 12.0848 20.915L13.1773 21.3817C15.196 16.6471 14.8897 12.2723 13.0407 7.71826Z" fill="#E9CD8B"/>
<path d="M2.27844 25.0358V27.019H2.86626V26.4846H3.17739C3.6892 26.4846 3.9837 26.2114 3.9837 25.74C3.9837 25.2899 3.6892 25.0358 3.17739 25.0358H2.27844ZM2.86626 25.4871H3.14888C3.32463 25.4871 3.42676 25.5844 3.42676 25.7566C3.42676 25.9347 3.32463 26.0309 3.14888 26.0309H2.86626V25.4883V25.4871ZM5.38614 26.7007L5.50251 27.0177H6.12951L5.31251 25.0346H4.70689L3.86138 27.0177H4.46701L4.58576 26.7007H5.38614ZM5.23057 26.2708H4.74963L4.99307 25.6236L5.23057 26.2708ZM7.0807 25.0097C6.58552 25.0097 6.26133 25.2531 6.26133 25.6355C6.26133 26.3337 7.29564 26.1437 7.29564 26.443C7.29564 26.5344 7.21607 26.5772 7.09257 26.5772C6.88832 26.5772 6.5582 26.4466 6.35395 26.2744L6.13307 26.7209C6.38245 26.9156 6.75058 27.0344 7.08664 27.0344C7.53076 27.0344 7.90364 26.8337 7.90364 26.4133C7.90364 25.6973 6.86814 25.8695 6.86814 25.5785C6.86814 25.5049 6.93345 25.4716 7.03202 25.4716C7.19945 25.4716 7.48802 25.5761 7.69108 25.6913L7.90958 25.24C7.65956 25.0889 7.37287 25.0092 7.0807 25.0097ZM8.93083 25.0097C8.43564 25.0097 8.11145 25.2531 8.11145 25.6355C8.11145 26.3337 9.14577 26.1437 9.14577 26.443C9.14577 26.5344 9.06739 26.5772 8.94271 26.5772C8.73846 26.5772 8.40833 26.4466 8.20408 26.2744L7.9832 26.7209C8.23257 26.9156 8.6007 27.0344 8.93676 27.0344C9.38089 27.0344 9.75377 26.8337 9.75377 26.4133C9.75377 25.6973 8.71945 25.8695 8.71945 25.5785C8.71945 25.5049 8.78358 25.4716 8.88333 25.4716C9.04958 25.4716 9.33814 25.5761 9.54239 25.6913L9.7597 25.24C9.50968 25.0889 9.22299 25.0092 8.93083 25.0097ZM9.96752 25.0358V27.019H10.5553V26.4846H10.8665C11.3783 26.4846 11.6728 26.2114 11.6728 25.74C11.6728 25.2899 11.3783 25.0358 10.8653 25.0358H9.96752ZM10.5553 25.4871H10.838C11.0137 25.4871 11.1146 25.5844 11.1146 25.7566C11.1146 25.9347 11.0137 26.0309 10.838 26.0309H10.5553V25.4883V25.4871ZM12.8674 25.018C12.2451 25.018 11.7868 25.4431 11.7868 26.025C11.7868 26.6104 12.2451 27.0439 12.8674 27.0439C13.4896 27.0439 13.948 26.6081 13.948 26.025C13.948 25.4455 13.4896 25.018 12.8674 25.018ZM12.8757 25.5108C13.137 25.5108 13.3448 25.7281 13.3448 26.0285C13.3448 26.3278 13.1358 26.5511 12.8757 26.5511C12.6156 26.5511 12.3888 26.3278 12.3888 26.0285C12.3888 25.7281 12.6133 25.5108 12.8757 25.5108ZM15.3338 27.019H16L15.5986 26.3706C15.8136 26.2483 15.9323 26.0333 15.9323 25.74C15.9323 25.2899 15.6272 25.0358 15.0951 25.0358H14.1701V27.019H14.7591V26.4846H15.0702L15.3338 27.019ZM14.7591 26.0309V25.4883H15.0951C15.2709 25.4883 15.373 25.5832 15.373 25.7566C15.373 25.9347 15.2709 26.0309 15.0951 26.0309H14.7591ZM17.811 25.5049V25.0358H16.0701V25.5049H16.6436V27.0177H17.235V25.5049H17.811Z" fill="#E9CD8B"/>
<path d="M21.9131 6.63945L22.0615 7.81746C23.2324 7.67021 24.4342 7.90889 25.5682 8.4302L24.4282 10.4038L22.0414 9.02395L21.4476 10.0511L23.8345 11.431L22.647 13.4877L22.1565 13.2027L21.5628 14.2299L22.0568 14.515L21.412 15.6312L22.4392 16.2249L23.084 15.1087L28.0679 17.9872C27.5797 18.6652 26.9638 19.2413 26.2546 19.683L22.2587 17.3757L21.6649 18.4028L24.9484 20.3004C24.0221 20.6187 23.0674 20.9037 22.0794 20.785L21.938 21.963C23.4401 22.1437 24.9622 21.8793 26.3154 21.2027C27.6685 20.5261 28.7933 19.4671 29.5499 18.157C30.5712 16.3836 30.8473 14.2776 30.3177 12.3009C29.7881 10.3242 28.496 8.63835 26.7249 7.61318C25.2703 6.77194 23.5803 6.42997 21.9131 6.63945ZM26.5859 9.04413C27.2738 9.52446 27.8604 10.1356 28.3121 10.8426C28.7638 11.5496 29.0719 12.3387 29.2186 13.1648L25.459 10.9976L26.5859 9.04413ZM24.8652 12.0247L29.316 14.5945C29.2732 15.4247 29.0691 16.2387 28.7151 16.9909L23.6777 14.0815L24.8652 12.0247Z" fill="#E9CD8B"/>
<path fill-rule="evenodd" clip-rule="evenodd" d="M23.6962 6.85898C22.9362 7.4463 22.2132 8.08004 21.5314 8.7566L22.3709 9.59616C23.0176 8.95433 23.7033 8.35311 24.4241 7.79592L23.6962 6.85898ZM27.6684 9.67096C27.0224 14.3283 25.2981 17.8754 21.4221 20.7848L22.1346 21.7348C26.2505 18.6449 28.1695 14.7036 28.844 9.83603L27.6684 9.67096Z" fill="#E9CD8B"/>
<path d="M24.0858 27.6242L24.3198 27.2169L22.8116 26.3464L22.5765 26.7526L23.0741 27.04L22.3176 28.3497L22.8283 28.6466L23.5859 27.3356L24.0858 27.6242Z" fill="#E9CD8B"/>
<path d="M20.393 0.00780431L20.482 0.0161394C20.4526 0.011531 20.4228 0.00913501 20.393 0.00900022V0.00780431ZM20.482 0.0161394C20.2089 -0.0258505 19.9295 0.014534 19.6795 0.132143C19.4295 0.249751 19.2202 0.439242 19.0784 0.67639L17.4848 3.4314C17.4276 3.52916 17.3996 3.6412 17.404 3.75437L17.4111 3.91234C17.4176 4.06545 17.483 4.21011 17.5936 4.31612C17.7043 4.42213 17.8516 4.48125 18.0049 4.48112H19C20.3253 4.48112 21.375 5.52968 21.375 6.85612V27.0437C21.3782 27.6486 21.1476 28.2313 20.7314 28.6703C20.3152 29.1093 19.7455 29.3706 19.1413 29.3997C19.0132 29.4066 18.8908 29.4548 18.7924 29.5372C18.694 29.6195 18.6249 29.7315 18.5955 29.8564C18.566 29.9813 18.5779 30.1123 18.6292 30.2299C18.6805 30.3475 18.7685 30.4454 18.8801 30.5088L20.507 31.4493C21.3258 31.9199 22.2979 32.0466 23.2101 31.8018C24.1223 31.5569 24.9002 30.9604 25.3733 30.143L35.4671 12.6607C35.9378 11.8422 36.0649 10.8706 35.8205 9.9586C35.5761 9.04664 34.9801 8.26878 34.1632 7.79545L26.9646 3.6392L24.9886 2.49801L21.0033 0.196649C20.8421 0.104036 20.666 0.042781 20.482 0.0161394ZM20.3075 1.1894C20.3431 1.19534 20.3763 1.20718 20.4096 1.22618L24.3948 3.52758L26.3708 4.66757L33.5695 8.82383C33.8414 8.97782 34.08 9.1844 34.2712 9.43153C34.4625 9.67865 34.6027 9.96138 34.6836 10.2632C34.7645 10.5651 34.7845 10.88 34.7425 11.1897C34.7004 11.4994 34.5972 11.7976 34.4387 12.0669L24.345 29.5504C24.1907 29.8223 23.984 30.0608 23.7367 30.252C23.4895 30.4432 23.2067 30.5833 22.9048 30.6642C22.6029 30.7451 22.2879 30.7651 21.9782 30.7232C21.6685 30.6812 21.3702 30.578 21.1007 30.4197L20.4167 30.0255C21.6113 29.4531 22.5625 28.4544 22.5625 27.0437V6.85612C22.5625 4.89199 20.963 3.29362 19 3.29362H18.9347L20.1056 1.27014C20.1412 1.20839 20.2077 1.17515 20.3075 1.1894Z" fill="#004761"/>
<path d="M10.6875 3.29245C10.53 3.29245 10.379 3.35498 10.2677 3.46633C10.1563 3.57768 10.0938 3.72873 10.0938 3.8862C10.0938 4.04367 10.1563 4.19469 10.2677 4.30604C10.379 4.41739 10.53 4.47995 10.6875 4.47995H19C20.3253 4.47995 21.375 5.5297 21.375 6.85495V27.0424C21.375 28.3689 20.3253 29.4174 19 29.4174H10.6875C10.53 29.4174 10.379 29.48 10.2677 29.5914C10.1563 29.7027 10.0938 29.8537 10.0938 30.0112C10.0938 30.1687 10.1563 30.3197 10.2677 30.4311C10.379 30.5424 10.53 30.6049 10.6875 30.6049H19C20.9629 30.6049 22.5625 29.0066 22.5625 27.0424V6.85495C22.5625 4.89201 20.9629 3.29245 19 3.29245H10.6875Z" fill="#004761"/>
<path d="M1.43094 3.29245C0.668565 3.29245 0 3.8957 0 4.66996V29.2275C0 30.0017 0.668565 30.6049 1.43094 30.6049H16.625C18.588 30.6049 20.1875 29.0066 20.1875 27.0424V6.85495C20.1875 4.89201 18.588 3.29245 16.625 3.29245H1.43094ZM1.43094 4.47995H16.625C17.9503 4.47995 19 5.5297 19 6.85495V27.0424C19 28.3689 17.9503 29.4174 16.625 29.4174H1.43094C1.26469 29.4174 1.1875 29.3225 1.1875 29.2275V4.66996C1.1875 4.57496 1.26588 4.47995 1.43094 4.47995Z" fill="#004761"/>
<path d="M28.681 4.7423C28.5528 4.75004 28.4306 4.79915 28.3326 4.88226C28.2347 4.96537 28.1664 5.07799 28.1379 5.20324C28.1094 5.32848 28.1222 5.4596 28.1746 5.5769C28.2269 5.6942 28.3159 5.79135 28.4281 5.85381L35.6279 10.0101C35.8996 10.1645 36.1378 10.3714 36.3288 10.6187C36.5197 10.8661 36.6596 11.1489 36.7403 11.4508C36.8209 11.7527 36.8408 12.0676 36.7986 12.3772C36.7565 12.6868 36.6532 12.985 36.4948 13.2543L26.401 30.7379C26.247 31.0096 26.0405 31.2481 25.7935 31.4393C25.5464 31.6304 25.2639 31.7705 24.9621 31.8514C24.6604 31.9323 24.3456 31.9524 24.0361 31.9104C23.7266 31.8685 23.4285 31.7654 23.1592 31.6071L19.3734 29.4222C19.3059 29.3826 19.2311 29.3567 19.1536 29.3461C19.076 29.3354 18.9971 29.3403 18.9214 29.3603C18.8457 29.3803 18.7747 29.4152 18.7125 29.4627C18.6503 29.5103 18.5981 29.5697 18.5589 29.6375C18.5198 29.7053 18.4944 29.7802 18.4843 29.8578C18.4742 29.9355 18.4796 30.0143 18.5001 30.0899C18.5206 30.1655 18.5559 30.2363 18.6039 30.2981C18.6518 30.36 18.7116 30.4118 18.7797 30.4505L22.5654 32.6355C23.3838 33.1063 24.3555 33.2333 25.2674 32.9889C26.1794 32.7445 26.9573 32.1486 27.4306 31.3316L37.5244 13.8481C37.9956 13.0297 38.1231 12.0579 37.8789 11.1456C37.6347 10.2334 37.0387 9.45522 36.2217 8.98169L29.0219 4.82544C28.9192 4.76403 28.8004 4.73505 28.681 4.7423Z" fill="#004761"/>
</svg>
