<svg width="16" height="21" viewBox="0 0 16 21" fill="none" xmlns="http://www.w3.org/2000/svg">
<path d="M15.8036 5.31C15.7963 5.30276 15.7891 5.29198 15.782 5.28473H15.7818C15.7744 5.27427 15.7661 5.26462 15.7566 5.25593L10.6052 0.104601C10.598 0.0973594 10.5872 0.0901177 10.58 0.0830367C10.5727 0.075795 10.5584 0.0650128 10.5512 0.0577712L10.4971 0H1.44191C1.05955 0 0.692776 0.151916 0.422274 0.422274C0.151916 0.692793 0 1.05956 0 1.44191V19.4658C0 19.8481 0.151916 20.2149 0.422274 20.4854C0.692793 20.7558 1.05956 20.9077 1.44191 20.9077H14.4191C14.8015 20.9077 15.1682 20.7558 15.4387 20.4854C15.7091 20.2149 15.861 19.8481 15.861 19.4658V5.36391L15.8036 5.31ZM15.1402 19.4659C15.1396 19.6569 15.0634 19.84 14.9284 19.975C14.7934 20.11 14.6103 20.1861 14.4193 20.1868H1.44208C1.25106 20.1861 1.06792 20.11 0.932917 19.975C0.797913 19.84 0.72178 19.6569 0.721137 19.4659V13.8638H5.6706L6.64389 14.9778C6.71164 15.0563 6.81061 15.101 6.91424 15.1004H15.1405L15.1402 19.4659ZM2.16301 9.13807V8.41711H13.6983V9.13807H2.16301ZM13.6983 10.0032V10.7242H7.31434V10.0032H13.6983ZM13.6983 7.55551H2.16301V6.83455H13.6983V7.55551ZM2.16301 5.96941V5.24845H8.54697V5.96941H2.16301ZM11.4308 5.1511V5.15126C11.2398 5.15062 11.0568 5.0745 10.9216 4.93948C10.7866 4.80431 10.7105 4.62133 10.7099 4.43032V1.22916L14.632 5.15128L11.4308 5.1511Z" fill="#CB5050"/>
</svg>
