<svg width="20" height="24" viewBox="0 0 20 24" fill="none" xmlns="http://www.w3.org/2000/svg">
<path d="M5.39034 18.0239H4.89824V19.2856H4.21045V16.0698H5.3957C5.54874 16.0685 5.70146 16.086 5.85031 16.1217C5.98195 16.1525 6.1057 16.2099 6.21433 16.2904C6.31958 16.3704 6.40326 16.4751 6.45814 16.5954C6.52041 16.7387 6.55067 16.8942 6.54632 17.0506C6.5637 17.3274 6.45057 17.5963 6.2404 17.7774C5.9945 17.9565 5.69368 18.0437 5.39034 18.0239ZM5.3374 16.657H4.89823V17.4355H5.33723C5.40337 17.4357 5.46951 17.4309 5.53485 17.4207C5.59278 17.4125 5.64879 17.3939 5.69996 17.3657C5.74792 17.3388 5.78767 17.2992 5.81487 17.2514C5.84641 17.1922 5.86153 17.1258 5.85848 17.059C5.86089 16.9933 5.85043 16.928 5.8279 16.8663C5.81036 16.8203 5.78043 16.7801 5.74132 16.75C5.61966 16.6779 5.47837 16.6457 5.33723 16.6581L5.3374 16.657Z" fill="#CB5050"/>
<path d="M7.95748 19.2883H6.89697V16.0699H7.94878C8.17473 16.0644 8.39953 16.1034 8.61066 16.1845C8.78768 16.255 8.94507 16.367 9.06981 16.5112C9.1942 16.6595 9.28529 16.8329 9.33695 17.0194C9.39681 17.2355 9.42594 17.459 9.42321 17.6834C9.42675 17.9136 9.39617 18.1433 9.33261 18.3647C9.27805 18.5525 9.18069 18.7254 9.04825 18.8694C8.76405 19.1628 8.36496 19.316 7.95748 19.2883ZM7.94959 16.6568H7.58477V18.6985H7.9409C8.0764 18.7035 8.21126 18.6758 8.33372 18.6177C8.43334 18.5669 8.51734 18.4901 8.57672 18.3953C8.63836 18.2951 8.68036 18.184 8.7008 18.068C8.72494 17.9378 8.73701 17.8057 8.73685 17.6732C8.73926 17.5228 8.72252 17.3726 8.68712 17.2263C8.66008 17.1124 8.611 17.0049 8.54293 16.9098C8.39858 16.7332 8.17666 16.6391 7.94944 16.6583L7.94959 16.6568Z" fill="#CB5050"/>
<path d="M10.4702 17.3153H11.5127L11.5171 17.9037L10.4717 17.908V19.288H9.78247V16.0696H11.8674V16.6579H10.4703L10.4702 17.3153Z" fill="#CB5050"/>
<path d="M15.8036 5.31C15.7963 5.30276 15.7891 5.29198 15.782 5.28473H15.7818C15.7744 5.27427 15.7661 5.26462 15.7566 5.25593L10.6052 0.104601C10.598 0.0973594 10.5872 0.0901177 10.58 0.0830367C10.5727 0.075795 10.5584 0.0650128 10.5512 0.0577712L10.4971 0H1.44191C1.05955 0 0.692776 0.151916 0.422274 0.422274C0.151916 0.692793 0 1.05956 0 1.44191V19.4658C0 19.8481 0.151916 20.2149 0.422274 20.4854C0.692793 20.7558 1.05956 20.9077 1.44191 20.9077H14.4191C14.8015 20.9077 15.1682 20.7558 15.4387 20.4854C15.7091 20.2149 15.861 19.8481 15.861 19.4658V5.36391L15.8036 5.31ZM15.1402 19.4659C15.1396 19.6569 15.0634 19.84 14.9284 19.975C14.7934 20.11 14.6103 20.1861 14.4193 20.1868H1.44208C1.25106 20.1861 1.06792 20.11 0.932917 19.975C0.797913 19.84 0.72178 19.6569 0.721137 19.4659V13.8638H5.6706L6.64389 14.9778C6.71164 15.0563 6.81061 15.101 6.91424 15.1004H15.1405L15.1402 19.4659ZM2.16301 9.13807V8.41711H13.6983V9.13807H2.16301ZM13.6983 10.0032V10.7242H7.31434V10.0032H13.6983ZM13.6983 7.55551H2.16301V6.83455H13.6983V7.55551ZM2.16301 5.96941V5.24845H8.54697V5.96941H2.16301ZM11.4308 5.1511V5.15126C11.2398 5.15062 11.0568 5.0745 10.9216 4.93948C10.7866 4.80431 10.7105 4.62133 10.7099 4.43032V1.22916L14.632 5.15128L11.4308 5.1511Z" fill="#CB5050"/>
<circle cx="16.0974" cy="20.0974" r="3.09744" fill="#494553"/>
<path d="M17.3653 20.1886H16.9256V18.822C16.9256 18.6717 16.8011 18.5487 16.649 18.5487H15.5428C15.3907 18.5487 15.2662 18.6717 15.2662 18.822V20.1886H14.8265C14.5804 20.1886 14.4559 20.4837 14.6301 20.6559L15.8995 21.9104C16.0074 22.017 16.1816 22.017 16.2895 21.9104L17.5589 20.6559C17.7331 20.4837 17.6114 20.1886 17.3653 20.1886Z" fill="white"/>
</svg>
