<svg width="36" height="38" viewBox="0 0 36 38" fill="none" xmlns="http://www.w3.org/2000/svg">
<path d="M4.40902 0.294166V3.17826H0.367362C0.165738 3.18065 0.00272949 3.32251 0 3.49865V37.6796C0.00273386 37.8558 0.165738 37.9976 0.367362 38H30.7417C30.9437 37.9976 31.1067 37.8558 31.1094 37.6796V34.7955H35.151C35.3527 34.7931 35.5157 34.6513 35.5184 34.4751V5.42131V5.39985V5.40015C35.5229 5.37303 35.5229 5.34561 35.5184 5.31879C35.5191 5.30895 35.5191 5.29882 35.5184 5.28898C35.4996 5.25441 35.475 5.22282 35.4449 5.1948L29.5661 0.0677354C29.534 0.0418067 29.4978 0.02005 29.4581 0.00365842H29.424C29.3932 -0.000216003 29.3618 -0.000216003 29.331 0.00365842H4.83558C4.73443 -0.00975303 4.63123 0.0140898 4.55058 0.0689281C4.46993 0.123766 4.41901 0.205431 4.4091 0.29424L4.40902 0.294166ZM30.3742 37.3592H0.734705V3.81908H4.40902V34.4751C4.41175 34.6513 4.57476 34.7931 4.77672 34.7955H30.3744L30.3742 37.3592ZM29.6394 1.06782L34.2641 5.10109H29.6394V1.06782ZM5.14402 3.49886V0.614766H28.9046L28.9042 5.42146C28.907 5.5976 29.07 5.73977 29.2719 5.74185H34.7834V34.1548H5.14395L5.14402 3.49886Z" fill="#004761"/>
<path d="M31.6086 31.4843C32.6126 30.5783 33.2373 29.404 33.3822 28.1508C33.527 26.8973 33.1836 25.6377 32.4071 24.5753C31.4428 23.2506 29.8872 22.3374 28.117 22.0569C26.3465 21.7762 24.5223 22.1535 23.085 23.0977C21.6476 24.0418 20.7283 25.4671 20.549 27.0285C20.3696 28.5899 20.9464 30.1459 22.1404 31.3199C23.3344 32.4939 25.0366 33.1793 26.8355 33.2106C28.6347 33.2419 30.3666 32.616 31.6132 31.4844L31.6086 31.4843ZM27.3414 22.6232C29.0309 22.7162 30.5848 23.4618 31.5792 24.657L27.3414 27.007V22.6232ZM26.974 32.57C24.9705 32.5807 23.107 31.6744 22.0647 30.1818C21.0224 28.6895 20.9538 26.8298 21.8836 25.2821C22.8138 23.7341 24.6065 22.725 26.6067 22.6233V27.5925C26.6039 27.6166 26.6039 27.6408 26.6067 27.6649V27.7075V27.7078C26.6057 27.7176 26.6057 27.7278 26.6067 27.7376L26.6361 27.7761C26.6361 27.7761 26.6361 27.8103 26.6754 27.8231L30.7758 31.2413C29.7445 32.0845 28.3874 32.5587 26.974 32.57ZM28.7572 28.6434L27.557 27.6437L29.4431 26.6012L31.9661 25.1954C32.5259 26.0755 32.7648 27.0834 32.651 28.0848C32.5372 29.0865 32.0762 30.034 31.3295 30.8011L28.7572 28.6434Z" fill="#E9CD8B"/>
<path d="M7.6767 13.0952H31.1529C31.3556 13.0952 31.5203 12.9516 31.5203 12.7746V6.70332C31.5176 6.52718 31.3546 6.38531 31.1529 6.38293H7.6767C7.47371 6.38293 7.309 6.52628 7.309 6.70332V12.7746C7.30763 12.8601 7.3459 12.9423 7.41527 13.0026C7.4843 13.0631 7.57862 13.0964 7.6767 13.0952ZM8.04406 7.02369H30.7854V12.4542H8.04406V7.02369Z" fill="#E9CD8B"/>
<path d="M10.7832 26.7203H10.5873L10.587 25.9812C10.587 25.8042 10.4226 25.6608 10.2196 25.6608C10.0166 25.6608 9.85227 25.8042 9.85227 25.9812V26.7203H9.65646C8.84313 26.7203 8.18665 27.1477 8.18665 27.733V28.4635C8.18665 29.0318 8.82363 29.4804 9.65646 29.4804H10.7832C11.2045 29.4804 11.4984 29.6768 11.4984 29.8565V30.5828C11.4984 30.7581 11.2045 30.9589 10.7832 30.9589H9.65646C9.2351 30.9589 8.94121 30.7581 8.94121 30.5828V30.2195H8.94087C8.94087 30.0428 8.77649 29.8991 8.57351 29.8991C8.37052 29.8991 8.20615 30.0428 8.20615 30.2195V30.5828C8.20615 31.1512 8.84313 31.5997 9.67596 31.5997H9.87177V32.3388C9.87177 32.5158 10.0361 32.6592 10.2391 32.6592C10.4421 32.6592 10.6065 32.5158 10.6065 32.3388V31.5997H10.8023C11.6156 31.5997 12.2721 31.1723 12.2721 30.5828V29.8565C12.2721 29.284 11.6351 28.8396 10.8023 28.8396H9.67561C9.25425 28.8396 8.96036 28.6387 8.96036 28.4635L8.9607 27.733C8.9607 27.5578 9.25459 27.3614 9.67595 27.3614H10.8027C11.224 27.3614 11.5179 27.5578 11.5179 27.733V28.1005C11.5179 28.2775 11.6823 28.4209 11.8853 28.4209C12.0882 28.4209 12.2526 28.2775 12.2526 28.1005V27.733C12.2331 27.1647 11.5961 26.7203 10.7832 26.7203Z" fill="#E9CD8B"/>
<path d="M16.1467 26.7203H15.9508V25.9812C15.9508 25.8042 15.7865 25.6608 15.5835 25.6608C15.3805 25.6608 15.2161 25.8042 15.2161 25.9812V26.7203H15.0152C14.207 26.7203 13.5699 27.1477 13.5699 27.733V28.4635C13.6082 28.7651 13.7815 29.0411 14.0521 29.2318C14.3231 29.4222 14.669 29.5117 15.0152 29.4804H16.147C16.5684 29.4804 16.8623 29.6768 16.8623 29.8565V30.5828C16.8623 30.758 16.5684 30.9589 16.147 30.9589L15.0152 30.9586C14.5986 30.9586 14.3047 30.7577 14.3047 30.5825V30.2192V30.2195C14.3047 30.0428 14.1403 29.8991 13.9373 29.8991C13.7343 29.8991 13.57 30.0428 13.57 30.2195V30.5828C13.6082 30.8844 13.7815 31.1604 14.0521 31.3508C14.3231 31.5412 14.669 31.6307 15.0152 31.5997H15.2161V32.3388C15.2161 32.5158 15.3805 32.6592 15.5835 32.6592C15.7865 32.6592 15.9508 32.5158 15.9508 32.3388V31.5997H16.1466C16.96 31.5997 17.6165 31.1723 17.6165 30.5828V29.8565C17.6165 29.2839 16.9795 28.8396 16.1466 28.8396H15.0151C14.5986 28.8396 14.3047 28.6387 14.3047 28.4635V27.733C14.3047 27.5577 14.5986 27.3613 15.0151 27.3613H16.147C16.5684 27.3613 16.8622 27.5577 16.8622 27.733V28.1005C16.8622 28.2775 17.0266 28.4208 17.2296 28.4208C17.4326 28.4208 17.597 28.2775 17.597 28.1005V27.733C17.597 27.1646 16.96 26.7203 16.1467 26.7203Z" fill="#E9CD8B"/>
<path d="M7.67666 17.2092H31.1529C31.3545 17.2071 31.5175 17.0649 31.5203 16.8888V14.8893C31.5175 14.7131 31.3545 14.571 31.1529 14.5689H7.67666C7.47367 14.5689 7.30896 14.7122 7.30896 14.8893V16.8888C7.30896 16.9737 7.34792 17.0554 7.41661 17.1153C7.48564 17.1755 7.57893 17.2092 7.67666 17.2092ZM8.04402 15.2096H30.7854V16.5684H8.04402V15.2096Z" fill="#E9CD8B"/>
<path d="M7.6767 20.9096H31.1529C31.3556 20.9096 31.5203 20.7662 31.5203 20.5892V18.5897C31.5176 18.4135 31.3546 18.2714 31.1529 18.2693H7.6767C7.47371 18.2693 7.309 18.4126 7.309 18.5897V20.5892C7.30763 20.6744 7.3459 20.7567 7.41527 20.8172C7.4843 20.8774 7.57862 20.9108 7.6767 20.9096ZM8.04406 18.91H30.7854V20.2688H8.04406V18.91Z" fill="#E9CD8B"/>
<path d="M19.0181 21.9777H7.6767C7.57862 21.9765 7.4843 22.0099 7.41527 22.0704C7.3459 22.1306 7.30762 22.2129 7.309 22.2981V24.2979C7.309 24.4747 7.47371 24.6183 7.6767 24.6183H19.0181C19.2211 24.6183 19.3858 24.4747 19.3858 24.2979V22.2939C19.3858 22.2093 19.3468 22.1282 19.2778 22.0689C19.2088 22.0093 19.1151 21.9765 19.0181 21.9777ZM18.6507 23.9772H8.0442V22.6143H18.6507V23.9772Z" fill="#E9CD8B"/>
</svg>
