<svg width="15" height="15" viewBox="0 0 15 15" fill="none" xmlns="http://www.w3.org/2000/svg">
<path d="M7.08333 0C3.1875 0 0 3.1875 0 7.08333C0 10.9792 3.1875 14.1667 7.08333 14.1667C10.9792 14.1667 14.1667 10.9792 14.1667 7.08333C14.1667 3.1875 10.9792 0 7.08333 0ZM8.5 9.70417C8.14583 9.91667 7.72083 9.775 7.50833 9.42083L6.44583 7.4375C6.375 7.29583 6.375 7.225 6.375 7.08333V3.54167C6.375 3.11667 6.65833 2.83333 7.08333 2.83333C7.50833 2.83333 7.79167 3.11667 7.79167 3.54167V6.87083L8.78333 8.7125C8.925 9.06667 8.85417 9.49167 8.5 9.70417Z" fill="#C3C3C3"/>
</svg>
