<svg width="42" height="40" viewBox="0 0 42 40" fill="none" xmlns="http://www.w3.org/2000/svg">
<path d="M1.40005 33.9734V9.80004H36.4002V15.0267H37.8002V3.92003C37.7996 3.40028 37.578 2.9021 37.1846 2.53459C36.7908 2.16737 36.257 1.96059 35.7002 1.96H30.8001V0H29.4001V1.96H25.2001V0H23.8001V1.96H19.6001V0H18.2001V1.96H14.0001V0H12.6001V1.96H8.40005V0H7.00005V1.96H2.10003C1.54316 1.96059 1.00939 2.16737 0.615627 2.53459C0.222185 2.90209 0.000624002 3.40027 0 3.92003V33.9734C0.000624962 34.4932 0.222185 34.9913 0.615627 35.3588C1.00938 35.7261 1.54315 35.9328 2.10003 35.9334H22.4001V34.6268H2.10003C1.71347 34.6265 1.40037 34.3342 1.40005 33.9734ZM2.10006 3.26669H7.00007V5.2267H8.40008V3.26669H12.6001V5.2267H14.0001V3.26669H18.2001V5.2267H19.6001V3.26669H23.8001V5.2267H25.2001V3.26669H29.4002V5.2267H30.8002V3.26669H35.7002C36.0867 3.26699 36.3999 3.55924 36.4002 3.92003V8.49337H1.40005V3.92003C1.40037 3.55924 1.71349 3.26698 2.10006 3.26669Z" fill="#004761"/>
<path d="M9.79988 13.0663C9.79925 12.5465 9.57769 12.0484 9.18425 11.6808C8.7905 11.3136 8.25673 11.1068 7.69985 11.1063H4.89984C4.34296 11.1068 3.80919 11.3136 3.41543 11.6808C3.02199 12.0483 2.80043 12.5465 2.7998 13.0663V15.6796C2.80043 16.1994 3.02199 16.6976 3.41543 17.0651C3.80918 17.4323 4.34295 17.6391 4.89984 17.6396H7.69985C8.25672 17.6391 8.79049 17.4323 9.18425 17.0651C9.57769 16.6976 9.79925 16.1994 9.79988 15.6796V13.0663ZM8.39987 15.6796C8.39956 16.0404 8.08643 16.3327 7.69987 16.333H4.89986C4.5133 16.3327 4.20017 16.0404 4.19986 15.6796V13.0663C4.20017 12.7055 4.5133 12.4132 4.89986 12.413H7.69987C8.08643 12.4132 8.39956 12.7055 8.39987 13.0663V15.6796Z" fill="#2C5868"/>
<path d="M18.2009 13.0663C18.2003 12.5465 17.9787 12.0484 17.5853 11.6808C17.1915 11.3136 16.6577 11.1068 16.1008 11.1063H13.3008C12.744 11.1068 12.2102 11.3136 11.8164 11.6808C11.423 12.0483 11.2014 12.5465 11.2008 13.0663V15.6796C11.2014 16.1994 11.423 16.6976 11.8164 17.0651C12.2102 17.4323 12.744 17.6391 13.3008 17.6396H16.1008C16.6577 17.6391 17.1915 17.4323 17.5853 17.0651C17.9787 16.6976 18.2003 16.1994 18.2009 15.6796V13.0663ZM16.8009 15.6796C16.8006 16.0404 16.4874 16.3327 16.1009 16.333H13.3009C12.9143 16.3327 12.6012 16.0404 12.6009 15.6796V13.0663C12.6012 12.7055 12.9143 12.4132 13.3009 12.413H16.1009C16.4874 12.4132 16.8006 12.7055 16.8009 13.0663V15.6796Z" fill="#2C5868"/>
<path d="M21.7002 11.1063C21.1433 11.1068 20.6095 11.3136 20.2158 11.6808C19.8223 12.0483 19.6008 12.5465 19.6002 13.0663V15.6796C19.6008 16.1994 19.8223 16.6976 20.2158 17.0651C20.6095 17.4323 21.1433 17.6391 21.7002 17.6396H24.5002C25.0571 17.6391 25.5908 17.4323 25.9846 17.0651C26.378 16.6976 26.5996 16.1994 26.6002 15.6796V13.0663C26.5996 12.5465 26.378 12.0484 25.9846 11.6808C25.5909 11.3136 25.0571 11.1068 24.5002 11.1063H21.7002ZM25.2002 13.0663V15.6796C25.1999 16.0404 24.8868 16.3326 24.5002 16.3329H21.7002C21.3136 16.3326 21.0005 16.0404 21.0002 15.6796V13.0663C21.0005 12.7055 21.3136 12.4132 21.7002 12.4129H24.5002C24.8868 12.4132 25.1999 12.7055 25.2002 13.0663Z" fill="#2C5868"/>
<path d="M34.9997 14.373V13.0663C34.9991 12.5465 34.7775 12.0484 34.3841 11.6808C33.9903 11.3136 33.4566 11.1068 32.8997 11.1063H30.0997C29.5428 11.1068 29.009 11.3136 28.6153 11.6808C28.2218 12.0483 28.0003 12.5465 27.9996 13.0663V14.373H29.3996V13.0663C29.4 12.7055 29.7131 12.4132 30.0996 12.413H32.8997C33.2862 12.4132 33.5993 12.7055 33.5997 13.0663V14.373H34.9997Z" fill="#2C5868"/>
<path d="M9.79988 20.9075C9.79925 20.3878 9.57769 19.8896 9.18425 19.5221C8.7905 19.1549 8.25673 18.9481 7.69985 18.9475H4.89984C4.34296 18.9481 3.80919 19.1549 3.41543 19.5221C3.02199 19.8896 2.80043 20.3878 2.7998 20.9075V23.5209C2.80043 24.0406 3.02199 24.5388 3.41543 24.9063C3.80918 25.2735 4.34295 25.4803 4.89984 25.4809H7.69985C8.25672 25.4803 8.79049 25.2735 9.18425 24.9063C9.57769 24.5388 9.79925 24.0406 9.79988 23.5209V20.9075ZM8.39987 23.5209C8.39956 23.8817 8.08643 24.1739 7.69987 24.1742H4.89986C4.5133 24.1739 4.20017 23.8817 4.19986 23.5209V20.9075C4.20017 20.5467 4.5133 20.2545 4.89986 20.2542H7.69987C8.08643 20.2545 8.39956 20.5467 8.39987 20.9075V23.5209Z" fill="#2C5868"/>
<path d="M18.2009 20.9075C18.2003 20.3878 17.9787 19.8896 17.5853 19.5221C17.1915 19.1549 16.6577 18.9481 16.1008 18.9475H13.3008C12.744 18.9481 12.2102 19.1549 11.8164 19.5221C11.423 19.8896 11.2014 20.3878 11.2008 20.9075V23.5209C11.2014 24.0406 11.423 24.5388 11.8164 24.9063C12.2102 25.2735 12.744 25.4803 13.3008 25.4809H16.1008C16.6577 25.4803 17.1915 25.2735 17.5853 24.9063C17.9787 24.5388 18.2003 24.0406 18.2009 23.5209V20.9075ZM16.8009 23.5209C16.8006 23.8817 16.4874 24.1739 16.1009 24.1742H13.3009C12.9143 24.1739 12.6012 23.8817 12.6009 23.5209V20.9075C12.6012 20.5467 12.9143 20.2545 13.3009 20.2542H16.1009C16.4874 20.2545 16.8006 20.5467 16.8009 20.9075V23.5209Z" fill="#2C5868"/>
<path d="M19.6002 20.9075V23.5208C19.6008 24.0406 19.8223 24.5388 20.2158 24.9063C20.6095 25.2735 21.1433 25.4803 21.7002 25.4809H22.4002V24.1742H21.7002C21.3136 24.1739 21.0005 23.8816 21.0002 23.5208V20.9075C21.0005 20.5467 21.3136 20.2545 21.7002 20.2542H22.4002V18.9475H21.7002C21.1433 18.9481 20.6095 19.1549 20.2158 19.5221C19.8223 19.8896 19.6008 20.3877 19.6002 20.9075Z" fill="#2C5868"/>
<path d="M7.69985 26.7858H4.89984C4.34296 26.7863 3.80919 26.9931 3.41543 27.3604C3.02199 27.7279 2.80043 28.226 2.7998 28.7458V31.3591C2.80043 31.8789 3.02199 32.3771 3.41543 32.7446C3.80918 33.1118 4.34295 33.3186 4.89984 33.3192H7.69985C8.25672 33.3186 8.79049 33.1118 9.18425 32.7446C9.57769 32.3771 9.79925 31.8789 9.79988 31.3591V28.7458C9.79925 28.226 9.57769 27.7279 9.18425 27.3604C8.7905 26.9931 8.25673 26.7863 7.69985 26.7858ZM8.39985 31.3591C8.39954 31.7199 8.08641 32.0121 7.69985 32.0124H4.89984C4.51327 32.0121 4.20015 31.7199 4.19983 31.3591V28.7458C4.20015 28.385 4.51327 28.0927 4.89984 28.0924H7.69985C8.08641 28.0927 8.39954 28.385 8.39985 28.7458V31.3591Z" fill="#2C5868"/>
<path d="M16.1008 26.7858H13.3008C12.744 26.7863 12.2102 26.9931 11.8164 27.3604C11.423 27.7279 11.2014 28.226 11.2008 28.7458V31.3591C11.2014 31.8789 11.423 32.3771 11.8164 32.7446C12.2102 33.1118 12.744 33.3186 13.3008 33.3192H16.1008C16.6577 33.3186 17.1915 33.1118 17.5853 32.7446C17.9787 32.3771 18.2003 31.8789 18.2009 31.3591V28.7458C18.2003 28.226 17.9787 27.7279 17.5853 27.3604C17.1915 26.9931 16.6577 26.7863 16.1008 26.7858ZM16.8009 31.3591C16.8005 31.7199 16.4874 32.0121 16.1008 32.0124H13.3008C12.9143 32.0121 12.6011 31.7199 12.6008 31.3591V28.7458C12.6011 28.385 12.9143 28.0927 13.3008 28.0924H16.1008C16.4874 28.0927 16.8005 28.385 16.8009 28.7458V31.3591Z" fill="#2C5868"/>
<path d="M19.6002 28.7457V31.3591C19.6008 31.8788 19.8223 32.377 20.2158 32.7445C20.6095 33.1117 21.1433 33.3185 21.7002 33.3191H22.4002V32.0124H21.7002C21.3136 32.0121 21.0005 31.7199 21.0002 31.3591V28.7458C21.0005 28.385 21.3136 28.0927 21.7002 28.0924H22.4002V26.7858H21.7002C21.1433 26.7863 20.6095 26.9931 20.2158 27.3603C19.8223 27.7279 19.6008 28.226 19.6002 28.7457Z" fill="#2C5868"/>
<path d="M5.59979 13.72H6.9998V15.0267H5.59979V13.72Z" fill="#2C5868"/>
<path d="M14.0005 13.72H15.4005V15.0267H14.0005V13.72Z" fill="#2C5868"/>
<path d="M22.4 13.72H23.8V15.0267H22.4V13.72Z" fill="#2C5868"/>
<path d="M39.9 19.5995H36.4V17.6395C36.3994 17.1198 36.1778 16.6216 35.7844 16.2541C35.3906 15.8869 34.8568 15.6801 34.2999 15.6795H31.4999C30.9431 15.6801 30.4093 15.8869 30.0155 16.2541C29.6221 16.6216 29.4005 17.1198 29.3999 17.6395V19.5995H25.8999C25.343 19.6001 24.8093 19.8069 24.4155 20.1741C24.022 20.5416 23.8005 21.0398 23.7999 21.5596V34.6262C23.8005 35.146 24.022 35.6442 24.4155 36.0117C24.8092 36.3789 25.343 36.5857 25.8999 36.5863H26.7289C26.6458 36.7954 26.6024 37.0165 26.5999 37.2396C26.5999 37.9399 27.0002 38.5868 27.6499 38.9371C28.2996 39.2871 29.1002 39.2871 29.7499 38.9371C30.3996 38.5868 30.7999 37.9399 30.7999 37.2396C30.7974 37.0165 30.754 36.7954 30.6708 36.5863H35.129C35.0459 36.7954 35.0024 37.0165 34.9999 37.2396C34.9999 37.9399 35.4003 38.5868 36.0499 38.9371C36.6996 39.2871 37.5003 39.2871 38.1499 38.9371C38.7996 38.5868 39.2 37.9399 39.2 37.2396C39.1975 37.0165 39.154 36.7954 39.0709 36.5863H39.8999C40.4568 36.5857 40.9906 36.3789 41.3843 36.0117C41.7778 35.6442 41.9993 35.146 42 34.6262V21.5596C41.9993 21.0398 41.7778 20.5416 41.3843 20.1741C40.9906 19.8069 40.4569 19.6001 39.9 19.5995ZM40.6 21.5595V24.1729H39.2V23.5195C39.1997 23.173 39.0519 22.8411 38.7894 22.5961C38.5269 22.3511 38.1712 22.2132 37.8 22.2129H37.1V20.9062H39.9C40.2866 20.9065 40.5997 21.1987 40.6 21.5595ZM35.7 33.9729V35.2795H30.1V33.9729C30.0996 33.6264 29.9518 33.2945 29.6893 33.0495C29.4268 32.8045 29.0712 32.6665 28.7 32.6662H28V32.0129C27.9997 31.6664 27.8518 31.3345 27.5893 31.0895C27.3268 30.8445 26.9712 30.7065 26.6 30.7062H25.2V25.4796H26.6C26.9712 25.4793 27.3269 25.3413 27.5893 25.0963C27.8518 24.8513 27.9997 24.5194 28 24.1729V23.5196H28.7C29.0712 23.5193 29.4268 23.3813 29.6893 23.1363C29.9518 22.8913 30.0996 22.5594 30.1 22.2129V20.9063H32.2V23.2492L29.8103 25.4796C29.5484 25.7252 29.4009 26.0571 29.4 26.4033V30.0529C29.4003 30.3994 29.5481 30.7313 29.8106 30.9763C30.0731 31.2213 30.4287 31.3593 30.8 31.3596H35C35.3712 31.3593 35.7268 31.2213 35.9893 30.9763C36.2518 30.7313 36.3996 30.3994 36.4 30.0529V26.4033C36.399 26.0571 36.2515 25.7252 35.9896 25.4796L33.6 23.2492V20.9063H35.7V22.2129C35.7003 22.5594 35.8481 22.8913 36.1106 23.1363C36.3731 23.3813 36.7287 23.5193 37.1 23.5196H37.8V24.1729C37.8003 24.5194 37.9481 24.8513 38.2106 25.0963C38.4731 25.3413 38.8287 25.4793 39.1999 25.4796H40.5999V30.7062H39.1999C38.8287 30.7065 38.4731 30.8445 38.2106 31.0895C37.9481 31.3345 37.8003 31.6664 37.8 32.0129V32.6662H37.1C36.7287 32.6665 36.3731 32.8045 36.1106 33.0495C35.8481 33.2945 35.7003 33.6264 35.7 33.9729ZM33.6 25.0965L35 26.4032V30.0528H30.8V26.4032L32.2 25.0965V27.4395H33.6V25.0965ZM30.8 17.6395C30.8003 17.2787 31.1134 16.9864 31.5 16.9861H34.3C34.6865 16.9864 34.9997 17.2787 35 17.6395V19.5995H30.8V17.6395ZM25.8999 20.9061H28.7V22.2128H28C27.6287 22.2131 27.2731 22.351 27.0106 22.596C26.7481 22.841 26.6003 23.173 26.6 23.5194V24.1728H25.2V21.5594C25.2003 21.1987 25.5134 20.9064 25.8999 20.9061ZM25.1999 34.6261V32.0128H26.5999V32.6661C26.6003 33.0126 26.7481 33.3446 27.0106 33.5895C27.2731 33.8345 27.6287 33.9725 27.9999 33.9728H28.6999V35.2795H25.8999C25.5134 35.2792 25.2003 34.9869 25.1999 34.6261ZM29.4 37.2395C29.4 37.5037 29.2293 37.742 28.9678 37.8429C28.7062 37.9441 28.4053 37.8884 28.205 37.7015C28.0046 37.5145 27.945 37.2336 28.0534 36.9895C28.1615 36.7454 28.4168 36.5861 28.7 36.5861C29.0865 36.5864 29.3996 36.8787 29.4 37.2395ZM37.8 37.2395C37.8 37.5037 37.6294 37.742 37.3678 37.8429C37.1062 37.9441 36.8053 37.8884 36.605 37.7015C36.4047 37.5145 36.345 37.2336 36.4534 36.9895C36.5616 36.7454 36.8169 36.5861 37.1 36.5861C37.4865 36.5864 37.7997 36.8787 37.8 37.2395ZM39.9 35.2795H37.1V33.9728H37.8C38.1712 33.9725 38.5269 33.8346 38.7894 33.5896C39.0518 33.3446 39.1997 33.0126 39.2 32.6662V32.0128H40.6V34.6262C40.5997 34.9869 40.2866 35.2792 39.9 35.2795Z" fill="#E9CD8B"/>
</svg>
