<svg width="54" height="54" viewBox="0 0 54 54" fill="none" xmlns="http://www.w3.org/2000/svg">
<circle cx="27" cy="27" r="25.5" stroke="#333333" stroke-width="3"/>
<path d="M28.4142 15.5858C27.6332 14.8047 26.3668 14.8047 25.5858 15.5858L12.8579 28.3137C12.0768 29.0948 12.0768 30.3611 12.8579 31.1421C13.6389 31.9232 14.9052 31.9232 15.6863 31.1421L27 19.8284L38.3137 31.1421C39.0948 31.9232 40.3611 31.9232 41.1421 31.1421C41.9232 30.3611 41.9232 29.0948 41.1421 28.3137L28.4142 15.5858ZM29 20L29 18.5L25 18.5L25 20L29 20ZM29 18.5L29 17L25 17L25 18.5L29 18.5Z" fill="black"/>
</svg>
