<svg width="19" height="13" viewBox="0 0 19 13" fill="none" xmlns="http://www.w3.org/2000/svg">
<path d="M19 8.58594C19 7.38672 18.8516 6.21484 18.7922 6.08594C18.7477 5.99219 18.4619 5.74609 17.8125 5.28125C17.1557 4.80859 17.1705 4.87891 17.0518 4.57031C17.1594 4.53516 17.2633 4.46875 17.3264 4.46094C17.4674 4.44531 17.4748 4.58594 17.768 4.58594C18.0611 4.58594 18.6957 4.50391 18.8256 4.36719C18.9555 4.23047 18.9963 4.18359 18.9963 4.0625C18.9963 3.94141 18.9295 3.69141 18.8033 3.54297C18.6771 3.39453 18.1391 3.32031 17.8236 3.27734C17.5082 3.23437 17.4637 3.27734 17.382 3.33203C17.2521 3.41797 17.2447 4.20312 17.2447 4.20312L16.9367 4.21094C16.7363 3.69141 16.458 2.64453 16.0238 1.82031C15.5488 0.921875 15.0516 0.640625 14.8438 0.570313C14.6396 0.503906 14.4541 0.457031 13.0625 0.308594C11.6412 0.152344 10.5094 0.132812 9.5 0.132812C8.49063 0.132812 7.35879 0.15625 5.9375 0.308594C4.5459 0.460937 4.36035 0.503906 4.15625 0.570313C3.95215 0.636719 3.45117 0.921875 2.97617 1.82031C2.54199 2.64453 2.26367 3.69141 2.06328 4.21094L1.75527 4.20312C1.75527 4.20312 1.75156 3.41797 1.61797 3.33203C1.53633 3.27734 1.4918 3.23047 1.17637 3.27734C0.860938 3.32422 0.322852 3.39453 0.19668 3.54297C0.0705078 3.69141 0.00371094 3.94141 0.00371094 4.0625C0.00371094 4.18359 0.0445312 4.23438 0.174414 4.36719C0.304297 4.50391 0.938867 4.58594 1.23203 4.58594C1.5252 4.58594 1.53262 4.44531 1.67363 4.46094C1.73672 4.46875 1.84434 4.53516 1.94824 4.57031C1.82578 4.87891 1.84434 4.80859 1.1875 5.28125C0.538086 5.75 0.248633 5.99219 0.207813 6.08594C0.148438 6.21484 0 7.38672 0 8.58594C0 9.78516 0.0816406 10.8633 0.0816406 11.2461C0.0816406 11.4062 0.0816406 11.6875 0.115039 11.957C0.137305 12.1172 0.170703 12.2734 0.230078 12.3945C0.330273 12.6094 0.423047 12.6289 0.805273 12.6094C1.29512 12.5859 2.00391 12.6094 2.73496 12.6406C3.2248 12.6602 3.72578 12.6797 4.17109 12.6914C5.28438 12.7148 4.95781 12.5195 5.43281 12.5273C5.90781 12.5352 7.78184 12.6172 9.49629 12.6172C11.2107 12.6172 13.0885 12.5352 13.5598 12.5273C14.0348 12.5195 13.7082 12.7148 14.8215 12.6914C15.2668 12.6836 15.7678 12.6602 16.2576 12.6406C16.9887 12.6133 17.7012 12.5859 18.1873 12.6094C18.5695 12.6289 18.6623 12.6094 18.7625 12.3945C18.8182 12.2734 18.8553 12.1172 18.8775 11.957C18.9146 11.6875 18.9109 11.4062 18.9109 11.2461C18.9184 10.8672 19 9.78516 19 8.58594ZM3.19883 2.67187C3.37695 2.23437 3.91133 1.35547 4.17109 1.19922C4.23418 1.16016 4.78711 0.976563 6.17129 0.878906C7.44414 0.789063 8.85059 0.753906 9.50371 0.753906C10.1568 0.753906 11.5633 0.789063 12.8361 0.878906C14.2166 0.976563 14.777 1.15625 14.8363 1.19922C15.1703 1.44141 15.6305 2.23437 15.8086 2.67187C15.9867 3.10937 16.2242 3.96875 16.1797 4.08594C16.1352 4.20312 16.2242 4.26172 15.623 4.21094C15.0256 4.16406 11.2738 4.11328 9.50742 4.11328C7.74473 4.11328 3.99297 4.16406 3.3918 4.21094C2.79063 4.25781 2.87969 4.20312 2.83516 4.08594C2.7832 3.96875 3.0207 3.11328 3.19883 2.67187ZM4.56445 7.5625C4.29727 7.63281 4.1377 7.78516 3.80371 7.78125C3.46973 7.78125 2.56797 7.62109 2.375 7.61328C2.18203 7.60547 2.01133 7.75 1.91113 7.77734C1.81094 7.80469 1.61426 7.73047 1.31738 7.63281C1.02051 7.53516 0.846094 7.5625 0.749609 7.13672C0.649414 6.71484 0.749609 6.10937 0.749609 6.10937C1.3916 6.07812 2.01133 6.14062 3.17285 6.48437C4.33437 6.82812 4.98008 7.48828 4.98008 7.48828C4.98008 7.48828 4.83164 7.49219 4.56445 7.5625ZM13.2926 10.6406C12.7619 10.7148 10.5391 10.7344 9.5 10.7344C8.46094 10.7344 6.23809 10.7109 5.70742 10.6406C5.16563 10.5664 4.46055 9.88281 4.94668 9.33984C5.60352 8.60156 5.48105 8.625 6.97285 8.42187C8.26426 8.24609 9.24395 8.23828 9.5 8.23828C9.75234 8.23828 10.7357 8.25 12.0271 8.42187C13.5189 8.625 13.3965 8.60156 14.0533 9.33984C14.5395 9.88281 13.8344 10.5664 13.2926 10.6406ZM18.2504 7.14062C18.1502 7.5625 17.9795 7.53906 17.6826 7.63672C17.3857 7.73437 17.1891 7.80469 17.0889 7.78125C16.9887 7.75781 16.818 7.61328 16.625 7.61719C16.432 7.625 15.5303 7.78516 15.1963 7.78516C14.8623 7.78516 14.7027 7.63672 14.4355 7.56641C14.1684 7.49609 14.0199 7.49609 14.0199 7.49609C14.0199 7.49609 14.6619 6.83203 15.8271 6.49219C16.9887 6.14844 17.6084 6.08594 18.2504 6.11719C18.2504 6.10937 18.3506 6.71484 18.2504 7.14062Z" fill="#EAB83F"/>
</svg>
