<svg width="41" height="41" viewBox="0 0 41 41" fill="none" xmlns="http://www.w3.org/2000/svg">
<path d="M27.6968 31.6795H29.686V33.6688C29.686 33.7703 29.7402 33.8641 29.8281 33.9149C29.916 33.9656 30.0244 33.9656 30.1123 33.9149C30.2002 33.8641 30.2544 33.7703 30.2544 33.6688V31.6795H32.2437C32.3452 31.6795 32.439 31.6253 32.4898 31.5374C32.5405 31.4495 32.5405 31.3412 32.4898 31.2532C32.439 31.1653 32.3452 31.1111 32.2437 31.1111H30.2544V29.1219C30.2544 29.0203 30.2002 28.9265 30.1123 28.8758C30.0244 28.825 29.916 28.825 29.8281 28.8758C29.7402 28.9265 29.686 29.0203 29.686 29.1219V31.1111H27.6968C27.5952 31.1111 27.5014 31.1653 27.4507 31.2532C27.3999 31.3412 27.3999 31.4495 27.4507 31.5374C27.5014 31.6253 27.5952 31.6795 27.6968 31.6795Z" fill="#E9CD8B"/>
<path d="M33.5998 27.6262H26.475C26.4023 27.6262 26.3326 27.6551 26.2812 27.7065C26.2298 27.7579 26.2009 27.8276 26.2009 27.9003V35.025C26.2009 35.0977 26.2298 35.1674 26.2812 35.2188C26.3326 35.2702 26.4023 35.2991 26.475 35.2991H33.5998C33.6724 35.2991 33.7422 35.2702 33.7935 35.2188C33.8449 35.1674 33.8738 35.0977 33.8738 35.025V27.9003C33.8738 27.8276 33.8449 27.7579 33.7935 27.7065C33.7422 27.6551 33.6724 27.6262 33.5998 27.6262ZM33.3257 34.751H26.749V28.1743H33.3257V34.751Z" fill="#E9CD8B"/>
<path d="M13.5427 21.0662L14.3207 20.2882L13.1878 15.1961L14.3405 14.0435C14.3405 14.0435 15.9745 12.4094 15.4297 11.8643C14.8846 11.32 13.2507 12.9539 13.2507 12.9539L12.0979 14.1063L7.00597 12.9734L6.22803 13.7513L10.3083 15.8959L9.37944 16.8249L7.72548 16.9223L6.94754 17.7003L8.89319 18.4004L9.59381 20.346L10.3718 19.5681L10.4693 17.9142L11.3976 16.9857L13.5427 21.0662Z" fill="#E9CD8B"/>
<path d="M40.3167 2.73333H35.5333V0.683333C35.5333 0.502129 35.4613 0.328242 35.3332 0.200119C35.2051 0.071996 35.0312 0 34.85 0H30.75C30.5688 0 30.3949 0.0719944 30.2668 0.200119C30.1387 0.328244 30.0667 0.502129 30.0667 0.683333V2.73333H23.2333V0.683333C23.2333 0.502129 23.1613 0.328242 23.0332 0.200119C22.9051 0.071996 22.7312 0 22.55 0H18.45C18.2688 0 18.0949 0.0719944 17.9668 0.200119C17.8387 0.328244 17.7667 0.502129 17.7667 0.683333V2.73333H10.9333V0.683333C10.9333 0.502129 10.8613 0.328242 10.7332 0.200119C10.6051 0.071996 10.4312 0 10.25 0H6.15C5.9688 0 5.79491 0.0719944 5.66679 0.200119C5.53866 0.328244 5.46667 0.502129 5.46667 0.683333V2.73333H0.683333C0.502129 2.73333 0.328242 2.80533 0.200119 2.93345C0.071996 3.06158 0 3.23546 0 3.41667V27.3333H1.36667V8.2H39.6333V39.6333H15.0333V41H40.3167C40.4979 41 40.6718 40.928 40.7999 40.7999C40.928 40.6718 41 40.4979 41 40.3167V3.41667C41 3.23546 40.928 3.06158 40.7999 2.93345C40.6718 2.80533 40.4979 2.73333 40.3167 2.73333ZM31.4333 1.36667H34.1667V4.1H31.4333V1.36667ZM19.1333 1.36667H21.8667V4.1H19.1333V1.36667ZM6.83333 1.36667H9.56667V4.1H6.83333V1.36667ZM39.6333 6.83333H1.36667V4.1H5.46667V4.78333C5.46667 4.96454 5.53866 5.13842 5.66679 5.26655C5.79491 5.39467 5.9688 5.46667 6.15 5.46667H10.25C10.4312 5.46667 10.6051 5.39467 10.7332 5.26655C10.8613 5.13842 10.9333 4.96454 10.9333 4.78333V4.1H17.7667V4.78333C17.7667 4.96454 17.8387 5.13842 17.9668 5.26655C18.0949 5.39467 18.2688 5.46667 18.45 5.46667H22.55C22.7312 5.46667 22.9051 5.39467 23.0332 5.26655C23.1613 5.13842 23.2333 4.96454 23.2333 4.78333V4.1H30.0667V4.78333C30.0667 4.96454 30.1387 5.13842 30.2668 5.26655C30.3949 5.39467 30.5688 5.46667 30.75 5.46667H34.85C35.0312 5.46667 35.2051 5.39467 35.3332 5.26655C35.4613 5.13842 35.5333 4.96454 35.5333 4.78333V4.1H39.6333V6.83333Z" fill="#004761"/>
<path d="M22.55 23.2334H37.5834C37.7646 23.2334 37.9385 23.1614 38.0666 23.0333C38.1947 22.9051 38.2667 22.7312 38.2667 22.55V10.25C38.2667 10.0688 38.1947 9.89495 38.0666 9.76683C37.9385 9.63871 37.7646 9.56671 37.5834 9.56671H22.55C22.3688 9.56671 22.1949 9.63871 22.0668 9.76683C21.9387 9.89496 21.8667 10.0688 21.8667 10.25V22.55C21.8667 22.7312 21.9387 22.9051 22.0668 23.0333C22.1949 23.1614 22.3688 23.2334 22.55 23.2334ZM23.2334 10.9334H36.9V21.8667H23.2334V10.9334Z" fill="#004761"/>
<path d="M21.8667 37.5833C21.8667 37.7645 21.9387 37.9384 22.0668 38.0665C22.1949 38.1946 22.3688 38.2666 22.55 38.2666H37.5834C37.7646 38.2666 37.9385 38.1946 38.0666 38.0665C38.1947 37.9384 38.2667 37.7645 38.2667 37.5833V25.2833C38.2667 25.1021 38.1947 24.9282 38.0666 24.8001C37.9385 24.672 37.7646 24.6 37.5834 24.6H22.55C22.3688 24.6 22.1949 24.672 22.0668 24.8001C21.9387 24.9282 21.8667 25.1021 21.8667 25.2833V37.5833ZM23.2334 25.9666H36.9V36.9H23.2334V25.9666Z" fill="#004761"/>
<path d="M19.1334 10.25C19.1334 10.0688 19.0614 9.89495 18.9333 9.76683C18.8052 9.63871 18.6313 9.56671 18.4501 9.56671H3.41673C3.23553 9.56671 3.06164 9.63871 2.93352 9.76683C2.80539 9.89496 2.7334 10.0688 2.7334 10.25V22.55C2.7334 22.7312 2.80539 22.9051 2.93352 23.0333C3.06164 23.1614 3.23553 23.2334 3.41673 23.2334H18.4501C18.6313 23.2334 18.8052 23.1614 18.9333 23.0333C19.0614 22.9051 19.1334 22.7312 19.1334 22.55V10.25ZM17.7667 21.8667H4.10007V10.9334H17.7667V21.8667Z" fill="#004761"/>
<path d="M19.1139 25.2638C19.1139 25.0826 19.0419 24.9087 18.9137 24.7806C18.7856 24.6525 18.6117 24.5805 18.4305 24.5805H3.3972C3.216 24.5805 3.04211 24.6525 2.91399 24.7806C2.78586 24.9087 2.71387 25.0826 2.71387 25.2638V37.5638C2.71387 37.745 2.78586 37.9189 2.91399 38.0471C3.04211 38.1752 3.216 38.2472 3.3972 38.2472H18.4305C18.6117 38.2472 18.7856 38.1752 18.9137 38.0471C19.0419 37.9189 19.1139 37.745 19.1139 37.5638V25.2638ZM17.7472 36.8805H4.08053V25.9472H17.7472V36.8805Z" fill="#004761"/>
<path d="M34.4816 15.6232H34.4809L33.502 13.127C33.502 13.127 33.2478 12.4944 32.4317 12.4944H31.5092V12.0004C31.5092 11.8637 31.3917 11.7533 31.2469 11.7533H28.8864C28.7417 11.7533 28.6242 11.8638 28.6242 12.0004V12.4944H27.7016C26.886 12.4944 26.6313 13.127 26.6313 13.127L25.6528 15.6232C25.0179 15.6232 24.5033 16.1371 24.5033 16.7708L24.5024 19.5005H25.4053V20.1776C25.4053 20.6684 25.8036 21.0662 26.2953 21.0662C26.787 21.0662 27.1853 20.6685 27.1853 20.1776V19.5005H32.9482V20.1776C32.9482 20.6684 33.3463 21.0662 33.8385 21.0662C34.3297 21.0662 34.7281 20.6685 34.7281 20.1776V19.5005H35.631V16.7708C35.631 16.1372 35.1164 15.6232 34.4816 15.6232ZM26.2954 18.3446C25.8037 18.3446 25.4054 17.9466 25.4054 17.456C25.4054 16.9653 25.8037 16.5673 26.2954 16.5673C26.7871 16.5673 27.1854 16.9651 27.1854 17.456C27.1854 17.9466 26.7869 18.3446 26.2954 18.3446ZM26.7998 15.6232L27.5239 13.7753C27.5239 13.7753 27.7124 13.3075 28.3162 13.3075H30.0669H31.8171C32.4213 13.3075 32.6096 13.7753 32.6096 13.7753L33.334 15.6232H26.7998ZM33.8381 18.3446C33.3464 18.3446 32.9483 17.9466 32.9483 17.456C32.9483 16.9653 33.3464 16.5673 33.8381 16.5673C34.3299 16.5673 34.7282 16.9651 34.7282 17.456C34.7282 17.9466 34.3297 18.3446 33.8381 18.3446Z" fill="#E9CD8B"/>
<path d="M14.8627 35.5079V30.7542L13.1542 29.9944V35.5079H12.7521V34.3019H11.9481V35.5079H11.5461V34.3019H10.3401V35.5079H9.93802V34.3019H9.13403V35.5079H8.73199V30.0186L7.02348 30.9673V35.508H6.521V35.9101H15.3653V35.508L14.8627 35.5079ZM8.17933 35.1058H7.57631V34.7038H8.17933V35.1058ZM8.17933 34.3018H7.57631V33.8998H8.17933V34.3018ZM8.17933 33.4979H7.57631V33.0958H8.17933V33.4979ZM8.17933 32.6938H7.57631V32.2917H8.17933V32.6938ZM8.17933 31.8898H7.57631V31.4877H8.17933V31.8898ZM14.3098 34.7623H13.7068V34.3602H14.3098V34.7623ZM14.3098 33.9582H13.7068V33.5562H14.3098V33.9582ZM14.3098 33.1542H13.7068V32.7522H14.3098V33.1542ZM14.3098 32.3502H13.7068V31.9482H14.3098V32.3502ZM14.3098 31.5462H13.7068V31.1441H14.3098V31.5462Z" fill="#E9CD8B"/>
<path d="M9.13403 29.0757V33.8998H12.7521V29.0757H9.13403ZM10.2395 33.2968H9.63652V32.8947H10.2395V33.2968ZM10.2395 32.4928H9.63652V32.0908H10.2395V32.4928ZM10.2395 31.6888H9.63652V31.2868H10.2395V31.6888ZM10.2395 30.8847H9.63652V30.4827H10.2395V30.8847ZM10.2395 30.0807H9.63652V29.6787H10.2395V30.0807ZM11.2446 33.2967H10.6416V32.8947H11.2446V33.2967ZM11.2446 32.4928H10.6416V32.0907H11.2446V32.4928ZM11.2446 31.6888H10.6416V31.2867H11.2446V31.6888ZM11.2446 30.8847H10.6416V30.4826H11.2446V30.8847ZM11.2446 30.0807H10.6416V29.6787H11.2446V30.0807ZM12.2496 33.2967H11.6466V32.8947H12.2496V33.2967ZM12.2496 32.4927H11.6466V32.0907H12.2496V32.4927ZM12.2496 31.6887H11.6466V31.2867H12.2496V31.6887ZM12.2496 30.8846H11.6466V30.4826H12.2496V30.8846ZM12.2496 30.0807H11.6466V29.6786H12.2496V30.0807Z" fill="#E9CD8B"/>
<path d="M12.7521 28.5491V28.6737H9.13403V28.5491L10.7421 27.7451V26.8647H11.1441V27.7451L12.7521 28.5491Z" fill="#E9CD8B"/>
</svg>
