<svg width="14" height="18" viewBox="0 0 14 18" fill="none" xmlns="http://www.w3.org/2000/svg">
<path d="M13.996 3.96301C13.992 3.93298 13.9841 3.90295 13.9722 3.87293C13.9682 3.86292 13.9642 3.85291 13.9602 3.8429C13.9404 3.80953 13.9165 3.77617 13.8847 3.74948C13.8847 3.74948 13.8847 3.74614 13.8807 3.74614L9.94946 0.443011C9.94549 0.443011 9.94549 0.443011 9.94549 0.443011C9.91369 0.416319 9.87394 0.3963 9.83419 0.379617C9.82226 0.376281 9.81033 0.372944 9.79443 0.369608C9.76263 0.359598 9.72686 0.352925 9.69108 0.349589C9.68314 0.349589 9.67518 0.346252 9.66723 0.346252H1.1925C0.532652 0.346252 0 0.796679 0 1.3472V16.0278C0 16.5783 0.532652 17.0287 1.1925 17.0287H12.8075C13.4634 17.0287 14 16.5783 14 16.0278V3.98303C14 3.97636 13.996 3.96968 13.996 3.96301ZM10.0647 1.484L12.6405 3.64938H10.4622C10.2436 3.64938 10.0647 3.49924 10.0647 3.31573V1.484ZM8.26405 10.2323V16.3614H5.73197V10.2323C5.73197 10.0488 5.55309 9.89863 5.33447 9.89863H4.58319L7 7.87005L9.41283 9.89863H8.66156C8.43896 9.89863 8.26405 10.0488 8.26405 10.2323ZM13.205 16.0278C13.205 16.2113 13.0261 16.3614 12.8075 16.3614H9.05906V10.5659H10.3748C10.5338 10.5659 10.6809 10.4859 10.7405 10.3591C10.8041 10.2356 10.7683 10.0922 10.657 9.99539L7.27825 7.16271C7.12323 7.03259 6.8728 7.03259 6.71777 7.16271L3.34299 9.99539C3.22771 10.0922 3.19591 10.2356 3.25554 10.3591C3.31914 10.4859 3.46224 10.5659 3.62521 10.5659H4.93697V16.3614H1.1925C0.973878 16.3614 0.795003 16.2113 0.795003 16.0278V1.3472C0.795003 1.16369 0.973878 1.01355 1.1925 1.01355H9.26973V3.31573C9.26973 3.86625 9.80238 4.31668 10.4622 4.31668H13.205V16.0278Z" fill="#4C9CDB"/>
</svg>
