<svg width="18" height="19" viewBox="0 0 18 19" fill="none" xmlns="http://www.w3.org/2000/svg">
<path d="M12.75 17H0.75C0.3 17 0 16.7167 0 16.2917V0.708333C0 0.283333 0.3 0 0.75 0H12.75C13.2 0 13.5 0.283333 13.5 0.708333V16.2917C13.5 16.7167 13.2 17 12.75 17ZM1.5 15.5833H12V1.41667H1.5V15.5833Z" fill="#7B868A"/>
<ellipse cx="13.166" cy="14.3" rx="4.416" ry="4.3" transform="rotate(-180 13.166 14.3)" fill="#7B868A"/>
<path d="M11.3586 14.1735H11.9855V16.0706C11.9855 16.2793 12.163 16.45 12.3798 16.45H13.957C14.1738 16.45 14.3512 16.2793 14.3512 16.0706V14.1735H14.9782C15.3291 14.1735 15.5065 13.7638 15.2581 13.5247L13.4483 11.7832C13.2946 11.6353 13.0462 11.6353 12.8924 11.7832L11.0826 13.5247C10.8342 13.7638 11.0077 14.1735 11.3586 14.1735Z" fill="white"/>
</svg>
