<svg width="38" height="34" viewBox="0 0 38 34" fill="none" xmlns="http://www.w3.org/2000/svg">
<path d="M10.0938 6.85498C8.04739 6.85749 6.08555 7.67151 4.63855 9.11851C3.19154 10.5655 2.37751 12.5273 2.375 14.5737C2.375 18.8297 5.83775 22.2925 10.0938 22.2925C14.3486 22.2925 17.8125 18.8297 17.8125 14.5737C17.8125 10.3189 14.3486 6.85498 10.0938 6.85498ZM9.50001 8.16359V10.4175H5.15969C5.69968 9.77516 6.36092 9.2455 7.10564 8.85878C7.85036 8.47205 8.66397 8.23583 9.50001 8.16359ZM10.6875 8.16359C12.3755 8.30978 13.9364 9.12053 15.0266 10.4175H10.6875V8.16359ZM4.35932 11.6049H9.50001V13.9799H3.68245C3.7632 13.1249 3.98288 12.3317 4.35932 11.6049ZM10.6875 11.6049H15.827C16.2046 12.3317 16.4231 13.1249 16.5039 13.9799H10.6875V11.6049ZM3.68245 15.1675H9.50001V17.5425H4.35932C3.9816 16.8023 3.7517 15.9956 3.68245 15.1675ZM10.6875 15.1675H16.5039C16.4347 15.9956 16.2048 16.8023 15.827 17.5425H10.6875V15.1675ZM5.15969 18.73H9.50001V20.9851C8.66389 20.9127 7.85022 20.6763 7.1055 20.2893C6.36077 19.9024 5.69958 19.3725 5.15969 18.73ZM10.6875 18.73H15.0266C14.4869 19.3724 13.8259 19.9022 13.0814 20.2891C12.3369 20.6761 11.5234 20.9125 10.6875 20.9851V18.73Z" fill="#E9CD8B"/>
<path fill-rule="evenodd" clip-rule="evenodd" d="M7.09127 7.71826C5.24233 12.2723 4.93596 16.6483 6.95471 21.3817L8.04721 20.915C6.14602 16.4583 6.4239 12.5229 8.19328 8.16597L7.09127 7.71826ZM13.0407 7.71826L11.9387 8.16597C13.708 12.5229 13.9859 16.4583 12.0847 20.915L13.1772 21.3817C15.196 16.6471 14.8896 12.2723 13.0407 7.71826Z" fill="#E9CD8B"/>
<path d="M2.27856 25.0359V27.019H2.86638V26.4846H3.17751C3.68932 26.4846 3.98382 26.2115 3.98382 25.7401C3.98382 25.29 3.68932 25.0359 3.17751 25.0359H2.27856ZM2.86638 25.4871H3.149C3.32475 25.4871 3.42688 25.5845 3.42688 25.7567C3.42688 25.9348 3.32475 26.031 3.149 26.031H2.86638V25.4883V25.4871ZM5.38626 26.7008L5.50263 27.0178H6.12963L5.31263 25.0347H4.70701L3.8615 27.0178H4.46713L4.58588 26.7008H5.38626ZM5.23069 26.2709H4.74976L4.9932 25.6237L5.23069 26.2709ZM7.08083 25.0098C6.58564 25.0098 6.26145 25.2532 6.26145 25.6356C6.26145 26.3338 7.29576 26.1438 7.29576 26.443C7.29576 26.5345 7.21619 26.5773 7.09269 26.5773C6.88844 26.5773 6.55833 26.4466 6.35408 26.2745L6.1332 26.7209C6.38257 26.9157 6.7507 27.0345 7.08676 27.0345C7.53089 27.0345 7.90377 26.8338 7.90377 26.4134C7.90377 25.6973 6.86826 25.8695 6.86826 25.5786C6.86826 25.505 6.93358 25.4717 7.03214 25.4717C7.19958 25.4717 7.48814 25.5762 7.6912 25.6914L7.9097 25.2401C7.65968 25.089 7.37299 25.0093 7.08083 25.0098ZM8.93095 25.0098C8.43576 25.0098 8.11157 25.2532 8.11157 25.6356C8.11157 26.3338 9.14589 26.1438 9.14589 26.443C9.14589 26.5345 9.06752 26.5773 8.94283 26.5773C8.73858 26.5773 8.40845 26.4466 8.2042 26.2745L7.98332 26.7209C8.2327 26.9157 8.60082 27.0345 8.93689 27.0345C9.38101 27.0345 9.75389 26.8338 9.75389 26.4134C9.75389 25.6973 8.71957 25.8695 8.71957 25.5786C8.71957 25.505 8.7837 25.4717 8.88345 25.4717C9.0497 25.4717 9.33826 25.5762 9.54251 25.6914L9.75982 25.2401C9.5098 25.089 9.22311 25.0093 8.93095 25.0098ZM9.96764 25.0359V27.019H10.5554V26.4846H10.8666C11.3784 26.4846 11.6729 26.2115 11.6729 25.7401C11.6729 25.29 11.3784 25.0359 10.8654 25.0359H9.96764ZM10.5554 25.4871H10.8381C11.0138 25.4871 11.1148 25.5845 11.1148 25.7567C11.1148 25.9348 11.0138 26.031 10.8381 26.031H10.5554V25.4883V25.4871ZM12.8675 25.0181C12.2453 25.0181 11.7869 25.4432 11.7869 26.0251C11.7869 26.6105 12.2453 27.044 12.8675 27.044C13.4898 27.044 13.9481 26.6081 13.9481 26.0251C13.9481 25.4456 13.4898 25.0181 12.8675 25.0181ZM12.8758 25.5109C13.1371 25.5109 13.3449 25.7282 13.3449 26.0286C13.3449 26.3279 13.1359 26.5511 12.8758 26.5511C12.6158 26.5511 12.3889 26.3279 12.3889 26.0286C12.3889 25.7282 12.6134 25.5109 12.8758 25.5109ZM15.334 27.019H16.0001L15.5988 26.3706C15.8137 26.2483 15.9325 26.0334 15.9325 25.7401C15.9325 25.29 15.6273 25.0359 15.0953 25.0359H14.1702V27.019H14.7592V26.4846H15.0703L15.334 27.019ZM14.7592 26.031V25.4883H15.0953C15.271 25.4883 15.3731 25.5833 15.3731 25.7567C15.3731 25.9348 15.271 26.031 15.0953 26.031H14.7592ZM17.8111 25.5049V25.0359H16.0702V25.5049H16.6438V27.0178H17.2351V25.5049H17.8111Z" fill="#E9CD8B"/>
<path d="M21.913 6.63939L22.0614 7.8174C23.2323 7.67015 24.4341 7.90882 25.5681 8.43014L24.4281 10.4037L22.0412 9.02389L21.4475 10.0511L23.8344 11.4309L22.6469 13.4877L22.1564 13.2027L21.5627 14.2299L22.0567 14.5149L21.4119 15.6311L22.4391 16.2249L23.0839 15.1087L28.0678 17.9871C27.5796 18.6651 26.9636 19.2412 26.2545 19.6829L22.2586 17.3756L21.6648 18.4028L24.9482 20.3004C24.022 20.6186 23.0672 20.9036 22.0792 20.7849L21.9379 21.9629C23.44 22.1436 24.9621 21.8793 26.3152 21.2027C27.6684 20.5261 28.7931 19.467 29.5498 18.1569C30.5711 16.3836 30.8472 14.2775 30.3176 12.3008C29.788 10.3241 28.4958 8.63829 26.7247 7.61311C25.2702 6.77188 23.5802 6.42991 21.913 6.63939ZM26.5858 9.04407C27.2737 9.5244 27.8603 10.1355 28.312 10.8425C28.7637 11.5496 29.0717 12.3386 29.2185 13.1647L25.4589 10.9975L26.5858 9.04407ZM24.8651 12.0247L29.3159 14.5944C29.2731 15.4247 29.069 16.2386 28.715 16.9908L23.6776 14.0814L24.8651 12.0247Z" fill="#E9CD8B"/>
<path fill-rule="evenodd" clip-rule="evenodd" d="M23.6962 6.85901C22.9362 7.44633 22.2132 8.08007 21.5314 8.75663L22.3709 9.59619C23.0176 8.95436 23.7033 8.35314 24.4241 7.79595L23.6962 6.85901ZM27.6684 9.67099C27.0224 14.3284 25.2981 17.8754 21.4221 20.7848L22.1346 21.7348C26.2505 18.6449 28.1695 14.7036 28.844 9.83606L27.6684 9.67099Z" fill="#E9CD8B"/>
<path d="M24.0858 27.6242L24.3198 27.2169L22.8116 26.3464L22.5765 26.7526L23.0741 27.04L22.3176 28.3498L22.8283 28.6466L23.5859 27.3356L24.0858 27.6242Z" fill="#E9CD8B"/>
<path d="M20.393 0.00780431L20.482 0.0161394C20.4526 0.011531 20.4228 0.00913501 20.393 0.00900022V0.00780431ZM20.482 0.0161394C20.2089 -0.0258505 19.9295 0.014534 19.6795 0.132143C19.4295 0.249751 19.2202 0.439242 19.0784 0.67639L17.4848 3.4314C17.4276 3.52916 17.3996 3.6412 17.404 3.75437L17.4111 3.91234C17.4176 4.06545 17.483 4.21011 17.5936 4.31612C17.7043 4.42213 17.8516 4.48125 18.0049 4.48112H19C20.3253 4.48112 21.375 5.52968 21.375 6.85612V27.0437C21.3782 27.6486 21.1476 28.2313 20.7314 28.6703C20.3152 29.1093 19.7455 29.3706 19.1413 29.3997C19.0132 29.4066 18.8908 29.4548 18.7924 29.5372C18.694 29.6195 18.6249 29.7315 18.5955 29.8564C18.566 29.9813 18.5779 30.1123 18.6292 30.2299C18.6805 30.3475 18.7685 30.4454 18.8801 30.5088L20.507 31.4493C21.3258 31.9199 22.2979 32.0467 23.2101 31.8018C24.1223 31.5569 24.9002 30.9604 25.3733 30.143L35.4671 12.6607C35.9378 11.8422 36.0649 10.8706 35.8205 9.9586C35.5761 9.04664 34.9801 8.26878 34.1632 7.79545L26.9646 3.6392L24.9886 2.49801L21.0033 0.196649C20.8421 0.104036 20.666 0.042781 20.482 0.0161394ZM20.3075 1.1894C20.3431 1.19534 20.3763 1.20718 20.4096 1.22618L24.3948 3.52758L26.3708 4.66757L33.5695 8.82383C33.8414 8.97782 34.08 9.1844 34.2712 9.43153C34.4625 9.67865 34.6027 9.96138 34.6836 10.2632C34.7645 10.5651 34.7845 10.88 34.7425 11.1897C34.7004 11.4994 34.5972 11.7976 34.4387 12.0669L24.345 29.5504C24.1907 29.8223 23.984 30.0608 23.7367 30.252C23.4895 30.4432 23.2067 30.5833 22.9048 30.6642C22.6029 30.7451 22.2879 30.7651 21.9782 30.7232C21.6685 30.6812 21.3702 30.578 21.1007 30.4197L20.4167 30.0255C21.6113 29.4531 22.5625 28.4544 22.5625 27.0437V6.85612C22.5625 4.89199 20.963 3.29362 19 3.29362H18.9347L20.1056 1.27014C20.1412 1.20839 20.2077 1.17515 20.3075 1.1894Z" fill="#004761"/>
<path d="M10.6875 3.29248C10.53 3.29248 10.379 3.35501 10.2677 3.46636C10.1563 3.57771 10.0938 3.72876 10.0938 3.88623C10.0938 4.0437 10.1563 4.19472 10.2677 4.30607C10.379 4.41742 10.53 4.47998 10.6875 4.47998H19C20.3253 4.47998 21.375 5.52973 21.375 6.85498V27.0425C21.375 28.3689 20.3253 29.4175 19 29.4175H10.6875C10.53 29.4175 10.379 29.4801 10.2677 29.5914C10.1563 29.7028 10.0938 29.8538 10.0938 30.0112C10.0938 30.1687 10.1563 30.3197 10.2677 30.4311C10.379 30.5424 10.53 30.605 10.6875 30.605H19C20.9629 30.605 22.5625 29.0066 22.5625 27.0425V6.85498C22.5625 4.89204 20.9629 3.29248 19 3.29248H10.6875Z" fill="#004761"/>
<path d="M1.43094 3.29248C0.668565 3.29248 0 3.89574 0 4.66999V29.2275C0 30.0018 0.668565 30.605 1.43094 30.605H16.625C18.588 30.605 20.1875 29.0066 20.1875 27.0425V6.85498C20.1875 4.89204 18.588 3.29248 16.625 3.29248H1.43094ZM1.43094 4.47998H16.625C17.9503 4.47998 19 5.52973 19 6.85498V27.0425C19 28.3689 17.9503 29.4175 16.625 29.4175H1.43094C1.26469 29.4175 1.1875 29.3225 1.1875 29.2275V4.66999C1.1875 4.57499 1.26588 4.47998 1.43094 4.47998Z" fill="#004761"/>
<path d="M28.6809 4.7423C28.5527 4.75004 28.4305 4.79915 28.3325 4.88226C28.2346 4.96537 28.1662 5.07799 28.1377 5.20324C28.1092 5.32848 28.1221 5.4596 28.1745 5.5769C28.2268 5.6942 28.3157 5.79135 28.428 5.85381L35.6278 10.0101C35.8995 10.1645 36.1377 10.3714 36.3286 10.6187C36.5196 10.8661 36.6595 11.1489 36.7402 11.4508C36.8208 11.7527 36.8407 12.0676 36.7985 12.3772C36.7564 12.6868 36.6531 12.985 36.4947 13.2543L26.4009 30.7379C26.2469 31.0096 26.0404 31.2481 25.7934 31.4393C25.5463 31.6304 25.2637 31.7705 24.962 31.8514C24.6603 31.9323 24.3455 31.9524 24.036 31.9104C23.7264 31.8685 23.4283 31.7654 23.159 31.6071L19.3733 29.4222C19.3057 29.3826 19.231 29.3567 19.1534 29.3461C19.0759 29.3354 18.9969 29.3403 18.9212 29.3603C18.8455 29.3803 18.7745 29.4152 18.7123 29.4627C18.6501 29.5103 18.598 29.5697 18.5588 29.6375C18.5196 29.7053 18.4943 29.7802 18.4842 29.8578C18.4741 29.9355 18.4795 30.0143 18.5 30.0899C18.5205 30.1655 18.5558 30.2363 18.6037 30.2981C18.6517 30.36 18.7115 30.4118 18.7795 30.4505L22.5653 32.6355C23.3837 33.1063 24.3554 33.2333 25.2673 32.9889C26.1793 32.7445 26.9572 32.1486 27.4305 31.3316L37.5242 13.8481C37.9955 13.0297 38.1229 12.0579 37.8787 11.1456C37.6345 10.2334 37.0386 9.45522 36.2216 8.98169L29.0217 4.82544C28.9191 4.76403 28.8003 4.73505 28.6809 4.7423Z" fill="#004761"/>
</svg>
