<svg width="40" height="36" viewBox="0 0 40 36" fill="none" xmlns="http://www.w3.org/2000/svg">
<path d="M40 31.0031V6.20062C40 3.75757 38.2738 1.7716 36.1538 1.7716H17.1385L16.9 0.671439C16.8585 0.479722 16.7625 0.309497 16.6273 0.187834C16.4921 0.0661707 16.3254 5.45858e-05 16.1538 0H3.84615C2.82647 0.00140653 1.84889 0.468485 1.12786 1.29878C0.406832 2.12908 0.00122143 3.2548 0 4.42901V31.0031C0 33.4461 1.72615 35.4321 3.84615 35.4321H36.1538C38.2738 35.4321 40 33.4461 40 31.0031ZM36.1538 3.54321C37.4262 3.54321 38.4615 4.7355 38.4615 6.20062V7.08642H18.2938L17.5246 3.54321H36.1538ZM16.7077 7.08642H14.4477L13.2938 1.7716H15.5538L16.7077 7.08642ZM1.53846 31.0031V4.42901C1.53846 2.96389 2.57385 1.7716 3.84615 1.7716H11.7077L13.1 8.18659C13.1415 8.3783 13.2375 8.54853 13.3727 8.67019C13.5079 8.79185 13.6746 8.85797 13.8462 8.85802H38.4615V31.0031C38.4615 32.4682 37.4262 33.6605 36.1538 33.6605H3.84615C2.57385 33.6605 1.53846 32.4682 1.53846 31.0031Z" fill="#E9CD8B"/>
<path d="M34.7778 28.5276H25.4445C25.2382 28.5276 25.0403 28.6246 24.8945 28.7974C24.7486 28.9702 24.6667 29.2046 24.6667 29.449C24.6667 29.6933 24.7486 29.9277 24.8945 30.1005C25.0403 30.2733 25.2382 30.3704 25.4445 30.3704H34.7778C34.9841 30.3704 35.1819 30.2733 35.3278 30.1005C35.4736 29.9277 35.5556 29.6933 35.5556 29.449C35.5556 29.2046 35.4736 28.9702 35.3278 28.7974C35.1819 28.6246 34.9841 28.5276 34.7778 28.5276ZM34.7778 24.8419H30.1111C29.9048 24.8419 29.707 24.939 29.5612 25.1118C29.4153 25.2846 29.3333 25.5189 29.3333 25.7633C29.3333 26.0077 29.4153 26.242 29.5612 26.4148C29.707 26.5876 29.9048 26.6847 30.1111 26.6847H34.7778C34.9841 26.6847 35.1819 26.5876 35.3278 26.4148C35.4736 26.242 35.5556 26.0077 35.5556 25.7633C35.5556 25.5189 35.4736 25.2846 35.3278 25.1118C35.1819 24.939 34.9841 24.8419 34.7778 24.8419ZM17.0149 23.9426C16.9853 23.9149 16.9651 23.8781 16.9325 23.8541C16.8329 23.7859 16.7256 23.7343 16.6198 23.6791C16.5685 23.6533 16.528 23.6072 16.4767 23.5832L13.9302 22.4517V21.1765C14.2781 20.7806 14.555 20.3056 14.7442 19.78C14.9335 19.2543 15.0312 18.6888 15.0316 18.1174V15.8728C15.0611 15.8157 15.1125 15.7788 15.1311 15.7125L15.6833 13.7499C15.7347 13.4187 15.7297 13.0787 15.6685 12.7499C15.6074 12.421 15.4913 12.11 15.3271 11.8352C15.1648 11.5594 14.9574 11.3252 14.7171 11.1463C14.4769 10.9675 14.2088 10.8476 13.9287 10.794L10.7118 10.1582C10.2052 10.0571 9.68491 10.1786 9.24865 10.5C8.8124 10.8214 8.49023 11.3204 8.34268 11.9033C8.04246 12.0416 7.77335 12.2719 7.5649 12.5778C7.38686 12.8349 7.26023 13.1364 7.1945 13.4597C7.12877 13.783 7.12564 14.1197 7.18535 14.4446C7.19947 14.5246 7.22248 14.6021 7.25379 14.675L7.76246 15.8415C7.77801 15.8765 7.81068 15.8931 7.82935 15.9262V18.1174C7.82935 19.3355 8.26646 20.4264 8.96024 21.2041V22.4499L6.41535 23.5795C6.35779 23.6053 6.31424 23.6551 6.25824 23.6846C6.15713 23.738 6.0529 23.7878 5.95801 23.8523C5.92535 23.8744 5.90668 23.9113 5.87712 23.9371C5.44375 24.2547 5.08518 24.697 4.83471 25.2228C4.58424 25.7486 4.45 26.3408 4.44446 26.9446V29.449C4.44446 29.6933 4.5264 29.9277 4.67226 30.1005C4.81813 30.2733 5.01596 30.3704 5.22224 30.3704C5.42852 30.3704 5.62635 30.2733 5.77221 30.1005C5.91807 29.9277 6.00001 29.6933 6.00001 29.449V26.9501C6.00001 26.2959 6.32201 25.7117 6.80424 25.4132C6.86335 25.3763 6.9209 25.3394 6.98779 25.3081L7.98801 24.864C8.42515 25.4324 8.9567 25.8877 9.54935 26.2014C10.142 26.515 10.7829 26.6802 11.432 26.6866C12.7589 26.6866 13.994 25.9955 14.8822 24.8548L15.9058 25.31C15.9649 25.3358 16.0193 25.3708 16.0738 25.4058C16.5622 25.7006 16.8905 26.2885 16.8905 26.9501V29.449C16.8905 29.6933 16.9724 29.9277 17.1183 30.1005C17.2641 30.2733 17.462 30.3704 17.6682 30.3704C17.8745 30.3704 18.0723 30.2733 18.2182 30.1005C18.3641 29.9277 18.446 29.6933 18.446 29.449V26.9501C18.4398 26.3468 18.3054 25.755 18.0553 25.2294C17.8052 24.7038 17.4474 24.2612 17.0149 23.9426ZM11.432 24.8437C10.7709 24.8437 10.1487 24.5765 9.62135 24.1379L10.0382 23.9518C10.1863 23.8858 10.3139 23.7679 10.4039 23.6138C10.494 23.4597 10.5422 23.2768 10.5422 23.0893V22.2435L10.5842 22.249C10.8565 22.3283 11.138 22.3799 11.4305 22.3799L11.446 22.378C11.4818 22.378 11.5176 22.367 11.5533 22.3651C11.7896 22.3563 12.0246 22.3199 12.2549 22.2564C12.2845 22.2472 12.3171 22.2509 12.3467 22.2416V23.0875C12.3467 23.2749 12.3949 23.4579 12.485 23.612C12.575 23.7661 12.7026 23.884 12.8507 23.95L13.252 24.1287C12.7231 24.5747 12.0962 24.8437 11.432 24.8437ZM13.4745 18.1192C13.4745 19.0056 13.0498 19.7501 12.4478 20.1721C12.342 20.2459 12.2378 20.3251 12.1242 20.3749C11.9602 20.4408 11.7898 20.4816 11.6171 20.4965C11.5596 20.5038 11.502 20.5296 11.4445 20.5296C11.3402 20.5278 11.2407 20.4909 11.1365 20.4707C11.0167 20.4486 10.8953 20.432 10.7833 20.3859C10.6149 20.3122 10.4554 20.2124 10.3089 20.0892C9.76601 19.6525 9.3849 18.9522 9.3849 18.1192V16.3409H13.4729V18.1192H13.4745ZM8.92757 14.4981L8.6989 13.9728C8.70007 13.8872 8.72586 13.8047 8.77201 13.7388C8.86379 13.6024 9.33357 13.5895 9.57624 13.3039C9.72261 13.123 9.80403 12.8819 9.80335 12.6313C9.80335 12.364 9.92779 12.2019 10.0009 12.1282C10.0631 12.066 10.1358 12.0205 10.2142 11.9947C10.2926 11.9689 10.3748 11.9635 10.4551 11.9789L13.672 12.6147C13.8276 12.646 13.9645 12.7455 14.0547 12.8985C14.1236 13.0162 14.1669 13.1523 14.1807 13.2947L13.8353 14.4999L8.92757 14.4981Z" fill="#004761"/>
</svg>
