<svg width="41" height="30" viewBox="0 0 41 30" fill="none" xmlns="http://www.w3.org/2000/svg">
<path d="M41.0003 0.229067V29.6899C41.0003 29.8208 40.8541 29.9189 40.6747 29.9189H5.22912C5.04973 29.9189 4.90356 29.8161 4.90356 29.6899V15.7682C4.90356 15.6373 5.05638 15.5391 5.22912 15.5391C5.41515 15.5391 5.55467 15.642 5.55467 15.7682V29.4561H40.3425V0.458134H5.56132V8.85413C5.56132 8.98035 5.41515 9.0832 5.23576 9.0832C5.05638 9.0832 4.91021 8.97568 4.91021 8.85413V0.229067C4.90356 0.107521 5.05638 0 5.22912 0H40.6747C40.8608 0 41.0003 0.107521 41.0003 0.229067Z" fill="#004761"/>
<path d="M5.22888 9.08765C2.70417 9.08765 0.644531 10.5368 0.644531 12.3133C0.644531 14.0897 2.70417 15.5389 5.22888 15.5389C7.76024 15.5389 9.81323 14.0897 9.81323 12.3133C9.81323 10.5368 7.76024 9.08765 5.22888 9.08765ZM8.30504 11.4251L4.51797 13.5615C4.45818 13.5942 4.38509 13.6129 4.31201 13.6129C4.22564 13.6129 4.14591 13.5895 4.08611 13.5428L2.13943 12.2198C2.00655 12.131 1.9999 11.986 2.13278 11.8925C2.25902 11.799 2.46498 11.799 2.59122 11.8879L4.33859 13.0706L7.9064 11.0651C8.04593 10.9856 8.25189 11.0043 8.36484 11.1025C8.47114 11.2053 8.45121 11.3456 8.30504 11.4251Z" fill="#E9CD8B"/>
<path d="M10.4576 12.5427C10.2982 14.3893 8.18541 15.8759 5.56104 15.9881V29.4563H40.3489V12.5427H10.4576ZM24.6957 26.2821C24.6558 26.2961 24.6093 26.3054 24.5628 26.3054C24.4366 26.3054 24.317 26.254 24.2638 26.1652C22.862 23.9727 19.7991 22.7105 15.8725 22.6824C12.4309 22.8274 10.0856 23.8792 8.03924 26.1932C7.93958 26.3054 7.74026 26.3382 7.58745 26.268C7.42799 26.2026 7.38148 26.0623 7.48114 25.9501C9.30159 23.8839 11.3679 22.7666 14.1783 22.3739C12.5505 21.8503 11.421 20.6956 11.421 19.354C11.421 17.5167 13.5405 16.0208 16.1515 16.0208C18.7626 16.0208 20.8887 17.5167 20.8887 19.354C20.8887 20.7003 19.7526 21.855 18.1248 22.3786C21.2408 22.7993 23.626 24.0568 24.8552 25.9782C24.9349 26.0951 24.8551 26.2306 24.6957 26.2821ZM36.3094 25.2396H28.1838C27.9978 25.2396 27.8582 25.132 27.8582 25.0105C27.8582 24.8796 28.0044 24.7814 28.1838 24.7814H36.3094C36.4954 24.7814 36.6349 24.8843 36.6349 25.0105C36.6416 25.132 36.4954 25.2396 36.3094 25.2396ZM36.3094 22.5562H28.1838C27.9978 22.5562 27.8582 22.4534 27.8582 22.3271C27.8582 22.2009 28.0044 22.0981 28.1838 22.0981H36.3094C36.4954 22.0981 36.6349 22.2056 36.6349 22.3271C36.6416 22.4534 36.4954 22.5562 36.3094 22.5562ZM36.3094 19.8775H32.2466H28.1838C27.9978 19.8775 27.8582 19.7747 27.8582 19.6485C27.8582 19.5222 28.0044 19.4194 28.1838 19.4194H36.3094C36.4954 19.4194 36.6349 19.5222 36.6349 19.6485C36.6349 19.7747 36.4954 19.8775 36.3094 19.8775ZM36.3094 17.1942H28.1838C27.9978 17.1942 27.8582 17.0913 27.8582 16.9651C27.8582 16.8389 28.0044 16.736 28.1838 16.736H32.2466H36.3094C36.4954 16.736 36.6349 16.8436 36.6349 16.9651C36.6416 17.0913 36.4954 17.1942 36.3094 17.1942Z" fill="#004761"/>
<path d="M36.6415 25.0052C36.6415 25.1314 36.4953 25.2343 36.3159 25.2343H28.1837C27.9977 25.2343 27.8582 25.1267 27.8582 25.0052C27.8582 24.8743 28.0043 24.7761 28.1837 24.7761H36.3093C36.4953 24.7761 36.6415 24.879 36.6415 25.0052Z" fill="#D7D5D5"/>
<path d="M17.0156 2.80586L13.295 8.97196C13.2418 9.06078 13.1222 9.11688 12.996 9.11688H12.976C12.8299 9.10753 12.7236 9.03741 12.6837 8.94859L10.4248 2.99753C10.3783 2.87598 10.4846 2.74976 10.6573 2.71704C10.83 2.68431 11.0094 2.75911 11.0559 2.88066L13.0558 8.17256L16.4043 2.62354C16.4708 2.50199 16.6635 2.45057 16.8296 2.49732C17.0089 2.54874 17.082 2.68431 17.0156 2.80586ZM20.517 2.76378L18.6832 8.92989C18.65 9.04208 18.5171 9.1122 18.3643 9.1122C18.3444 9.1122 18.3178 9.10753 18.2979 9.10753C18.1185 9.07948 18.0122 8.95794 18.0454 8.83171L19.8791 2.66561C19.919 2.53939 20.0918 2.45992 20.2645 2.48797C20.4439 2.51602 20.5568 2.63756 20.517 2.76378ZM28.1908 3.0957C28.1708 3.22192 28.018 3.31074 27.832 3.29672C26.1776 3.17985 24.9884 3.34814 24.2974 3.78757C23.8589 4.06806 23.7792 4.55892 24.118 4.91421C24.4701 5.27417 25.0614 5.64348 25.8654 5.99877C26.862 6.4382 27.2473 7.29837 26.7756 8.00427C26.2308 8.80367 25.0349 9.23843 23.447 9.23843C22.9354 9.23843 22.3839 9.19168 21.7993 9.10285C21.6199 9.07481 21.5136 8.95326 21.5534 8.82704C21.5933 8.70082 21.766 8.62602 21.9454 8.65407C24.0516 8.98131 25.5996 8.67277 26.1843 7.80793C26.5165 7.3124 26.2308 6.70467 25.5265 6.38678C24.6429 5.99409 23.9918 5.58738 23.5931 5.17132C23.0616 4.62437 23.1812 3.88107 23.8655 3.44631C24.696 2.91338 26.0514 2.70769 27.9051 2.83858C28.0778 2.85261 28.2041 2.9648 28.1908 3.0957ZM35.2467 9.11688C35.0673 9.1496 34.8945 9.07013 34.848 8.95326L34.363 7.58353L34.2036 7.1254L32.9744 3.62863L30.7354 7.1254L30.4431 7.58353L29.5395 8.99066C29.4863 9.07948 29.3601 9.1309 29.2405 9.1309C29.2006 9.1309 29.1541 9.12155 29.1076 9.10753C28.9415 9.05611 28.8751 8.92054 28.9415 8.80367L29.9049 7.30772C29.9116 7.27967 29.9315 7.25162 29.9581 7.22357L32.7618 2.83391C32.8216 2.74041 32.9545 2.68899 33.0874 2.69366C33.2269 2.70301 33.3398 2.77313 33.3731 2.86663L34.9145 7.26097C34.9278 7.27967 34.9344 7.29837 34.9344 7.31707L35.4726 8.83639C35.5257 8.95794 35.4194 9.08416 35.2467 9.11688Z" fill="#004761"/>
<path d="M5.56104 0.458496V8.63478C8.19205 8.74698 10.3048 10.2336 10.4576 12.0801H40.3489V0.458496H5.56104ZM17.0153 2.80526L13.2946 8.97137C13.2415 9.06019 13.1219 9.11629 12.9956 9.11629H12.9757C12.8295 9.10694 12.7232 9.03682 12.6834 8.94799L10.4244 2.99693C10.3779 2.87539 10.4842 2.74916 10.657 2.71644C10.8297 2.68372 11.0091 2.75851 11.0556 2.88006L13.0554 8.17197L16.404 2.62294C16.4704 2.5014 16.6631 2.44998 16.8292 2.49672C17.0086 2.54815 17.0817 2.68372 17.0153 2.80526ZM20.5166 2.76319L18.6829 8.9293C18.6497 9.04149 18.5168 9.11161 18.364 9.11161C18.3441 9.11161 18.3175 9.10694 18.2975 9.10694C18.1182 9.07889 18.0119 8.95734 18.0451 8.83112L19.8788 2.66502C19.9187 2.5388 20.0914 2.45933 20.2642 2.48737C20.4435 2.51542 20.5565 2.63697 20.5166 2.76319ZM27.8317 3.29612C26.1773 3.17925 24.988 3.34754 24.2971 3.78698C23.8586 4.06747 23.7788 4.55833 24.1177 4.91361C24.4698 5.27358 25.0611 5.64289 25.865 5.99817C26.8616 6.43761 27.247 7.29778 26.7753 8.00368C26.2305 8.80308 25.0345 9.23783 23.4466 9.23783C22.935 9.23783 22.3836 9.19109 21.7989 9.10226C21.6195 9.07422 21.5132 8.95267 21.5531 8.82645C21.593 8.70023 21.7657 8.62543 21.9451 8.65348C24.0512 8.98072 25.5993 8.67218 26.1839 7.80734C26.5161 7.3118 26.2305 6.70407 25.5262 6.38619C24.6425 5.9935 23.9914 5.58679 23.5928 5.17073C23.0613 4.62377 23.1809 3.88047 23.8652 3.44571C24.6957 2.91278 26.0511 2.70709 27.9047 2.83799C28.0841 2.85201 28.2104 2.96421 28.1971 3.09043C28.1705 3.21665 28.0243 3.31014 27.8317 3.29612ZM35.2463 9.11629C35.0669 9.14901 34.8942 9.06954 34.8477 8.95267L34.3627 7.58294H30.4427L29.5392 8.99007C29.486 9.07889 29.3598 9.13031 29.2402 9.13031C29.2003 9.13031 29.1538 9.12096 29.1073 9.10694C28.9412 9.05552 28.8748 8.91995 28.9412 8.80307L29.9046 7.30713C29.9112 7.27908 29.9312 7.25103 29.9577 7.22298L32.7615 2.83331C32.8213 2.73981 32.9542 2.68839 33.087 2.69307C33.2266 2.70242 33.3395 2.77254 33.3727 2.86604L34.9141 7.26038C34.9274 7.27908 34.9341 7.29778 34.9341 7.31648L35.4722 8.8358C35.5254 8.95734 35.4191 9.08357 35.2463 9.11629Z" fill="#E9CD8B"/>
<path d="M34.2033 7.11359H30.7351L32.9741 3.61682L34.2033 7.11359Z" fill="#E9CD8B"/>
<path d="M34.954 7.34312C34.954 7.47401 34.8012 7.57218 34.6284 7.57218H30.2301C30.0507 7.57218 29.9045 7.46934 29.9045 7.34312C29.9045 7.32909 29.9045 7.31039 29.9112 7.29637C29.9178 7.26832 29.9378 7.24027 29.9643 7.21222C30.0241 7.15145 30.1238 7.10938 30.2301 7.10938H34.6284C34.7613 7.10938 34.8742 7.17015 34.9274 7.25429C34.9407 7.27299 34.9473 7.29169 34.9473 7.31039C34.954 7.32442 34.954 7.33377 34.954 7.34312Z" fill="#004761"/>
</svg>
