<svg width="33" height="33" viewBox="0 0 33 33" fill="none" xmlns="http://www.w3.org/2000/svg">
<path d="M22.889 28.8299C23.7695 27.8016 24.5407 26.5772 25.1634 25.1842H27.337C26.1238 26.6954 24.6089 27.937 22.889 28.8299ZM5.66209 25.1842H7.83575C8.45754 26.5772 9.22957 27.8016 10.1101 28.8299C8.39003 27.9372 6.87507 26.6956 5.66209 25.1842ZM10.1101 4.1693C9.22957 5.19751 8.45754 6.42199 7.83575 7.8158H5.66209C6.87524 6.30438 8.39015 5.06246 10.1101 4.1693ZM27.337 7.8158H25.1634C24.5407 6.42199 23.7695 5.19751 22.889 4.1693C24.6091 5.06219 26.1241 6.30415 27.337 7.8158ZM26.8915 15.6316C26.8116 13.4553 26.4382 11.4015 25.8251 9.55264H28.5198C29.5948 11.4089 30.2217 13.4904 30.3504 15.6316H26.8915ZM26.8915 17.3684H30.3504C30.2215 19.5096 29.5947 21.5911 28.5198 23.4474H25.8251C26.4382 21.5985 26.8116 19.5447 26.8915 17.3684ZM17.3684 23.4474V17.3684H25.1564C25.0713 19.5751 24.6675 21.6385 24.0127 23.4474H17.3684ZM17.3684 30.3244V25.1842H23.2728C21.8521 28.0179 19.754 29.9449 17.3684 30.3244ZM15.6316 25.1842V30.3244C13.246 29.9449 11.147 28.0179 9.7263 25.1842H15.6316ZM7.8427 17.3684H15.6316V23.4474H8.98641C8.33162 21.6385 7.9278 19.5751 7.8427 17.3684ZM6.10759 15.6316H2.64867C2.77796 13.4906 3.40445 11.4093 4.47843 9.55264H7.17488C6.56091 11.4015 6.18836 13.4553 6.10759 15.6316ZM15.6316 9.55264V15.6316H7.8427C7.9278 13.4249 8.33162 11.3616 8.98641 9.55264H15.6316ZM15.6316 2.67475V7.8158H9.7263C11.1479 4.98128 13.246 3.05425 15.6316 2.67475ZM24.0127 9.55264C24.6675 11.3616 25.0713 13.4249 25.1564 15.6316H17.3684V9.55264H24.0127ZM17.3684 7.8158V2.67475C19.754 3.05425 21.8512 4.98128 23.2719 7.8158H17.3684ZM2.64867 17.3684H6.10759C6.18749 19.5447 6.56091 21.5985 7.17488 23.4474H4.47843C3.40457 21.5907 2.77809 19.5094 2.64867 17.3684ZM16.5 0.868433C7.86701 0.868433 0.868408 7.86704 0.868408 16.5C0.868408 25.133 7.86701 32.1316 16.5 32.1316C25.133 32.1316 32.1316 25.133 32.1316 16.5C32.1316 7.86704 25.133 0.868433 16.5 0.868433Z" fill="#D9D9D9"/>
</svg>
