<svg width="34" height="41" viewBox="0 0 34 41" fill="none" xmlns="http://www.w3.org/2000/svg">
<path d="M33.9208 7.84799C33.9208 7.29325 33.7048 6.76097 33.3204 6.36878C32.9356 5.97659 32.4141 5.75627 31.8703 5.75627C26.1782 5.75627 22.028 4.1665 18.4353 0.598212C18.0519 0.215065 17.5367 0 17.0001 0C16.4631 0 15.948 0.214773 15.5646 0.59792C11.968 4.16651 7.82184 5.75598 2.12956 5.75598C1.58576 5.75598 1.06427 5.97659 0.679802 6.36878C0.295337 6.76097 0.0790776 7.29324 0.0790776 7.84799C0.0790776 8.81853 0.0790779 9.8227 0.0421758 10.8892C-0.146336 21.0504 -0.408944 34.9692 16.3274 40.8842C16.7628 41.0386 17.2371 41.0386 17.6727 40.8842C34.409 34.9689 34.1461 21.0504 33.9579 10.881C33.9373 9.82263 33.9208 8.81861 33.9208 7.84799ZM26.8465 29.0242C24.9379 27.4782 22.8763 26.1394 20.6951 25.0293C20.665 25.0147 20.6459 24.9838 20.6459 24.9496V22.8579C20.9339 22.3586 21.1353 21.8124 21.2406 21.2431C21.5604 21.1386 21.8476 20.6157 22.1182 19.6366C22.3642 18.7454 22.3682 18.1683 22.1182 17.8712C22.0158 17.7471 21.867 17.673 21.708 17.6663C21.7629 17.4895 21.8067 17.3091 21.8393 17.1267C22.1305 15.328 21.9786 14.0268 21.3842 13.257C21.1573 12.9445 20.826 12.7271 20.4533 12.6463C20.1464 12.1607 19.723 11.763 19.2229 11.4916C18.4443 11.0314 17.5421 10.8365 16.6475 10.9354C16.2954 10.9526 15.9476 11.0203 15.614 11.1361C15.2333 11.28 14.8734 11.4758 14.5436 11.7174C14.1214 11.9906 13.734 12.3165 13.3914 12.688C12.7781 13.3028 12.3438 14.079 12.1364 14.9303C11.9739 15.6476 11.9739 16.3928 12.1364 17.1101C12.169 17.2925 12.2131 17.4729 12.2677 17.6497C12.109 17.6561 11.9599 17.7305 11.8575 17.8545C11.6155 18.1516 11.6198 18.7288 11.8575 19.62C12.1281 20.5947 12.4153 21.1219 12.7351 21.2264C12.8398 21.8025 13.0409 22.3557 13.3298 22.8623V24.954C13.3298 24.9879 13.3107 25.0188 13.2806 25.0334C11.0997 26.1434 9.03804 27.4822 7.12919 29.0285C3.88958 23.7074 4.01254 17.0894 4.12729 10.9727V9.87661C9.25752 9.54599 13.4123 7.9521 17.0043 4.90651C20.5967 7.95218 24.7514 9.54598 29.8359 9.87661V10.9727C29.9712 17.0843 30.0904 23.7031 26.8465 29.0242Z" fill="#004761"/>
</svg>
